{
	"asset":{
		"generator":"Khronos glTF Blender I/O v4.4.55",
		"version":"2.0"
	},
	"scene":0,
	"scenes":[
		{
			"name":"Scene",
			"nodes":[
				0
			]
		}
	],
	"nodes":[
		{
			"mesh":0,
			"name":"bookshelf02",
			"rotation":[
				0,
				-0.7071068286895752,
				0,
				0.7071067094802856
			],
			"scale":[
				1.3616300821304321,
				1.3616299629211426,
				1.3616300821304321
			]
		}
	],
	"materials":[
		{
			"name":"book_red1",
			"normalTexture":{
				"index":0
			},
			"pbrMetallicRoughness":{
				"baseColorTexture":{
					"index":1
				},
				"metallicFactor":0
			}
		},
		{
			"name":"book_t1",
			"normalTexture":{
				"index":2
			},
			"pbrMetallicRoughness":{
				"baseColorTexture":{
					"index":3
				},
				"metallicFactor":0
			}
		},
		{
			"name":"textures/readables/book_row01",
			"normalTexture":{
				"index":4
			},
			"pbrMetallicRoughness":{
				"baseColorTexture":{
					"index":5
				},
				"metallicRoughnessTexture":{
					"index":6
				}
			}
		},
		{
			"name":"wardrobe1",
			"normalTexture":{
				"index":7
			},
			"pbrMetallicRoughness":{
				"baseColorFactor":[
					0.5,
					0.5,
					0.5,
					1
				],
				"baseColorTexture":{
					"index":8
				},
				"metallicFactor":0
			}
		}
	],
	"meshes":[
		{
			"name":"Mesh_0.065",
			"primitives":[
				{
					"attributes":{
						"POSITION":0,
						"NORMAL":1,
						"TEXCOORD_0":2
					},
					"indices":3,
					"material":0
				},
				{
					"attributes":{
						"POSITION":4,
						"NORMAL":5,
						"TEXCOORD_0":6
					},
					"indices":7,
					"material":1
				},
				{
					"attributes":{
						"POSITION":8,
						"NORMAL":9,
						"TEXCOORD_0":10
					},
					"indices":11,
					"material":2
				},
				{
					"attributes":{
						"POSITION":12,
						"NORMAL":13,
						"TEXCOORD_0":14
					},
					"indices":15,
					"material":3
				}
			]
		}
	],
	"textures":[
		{
			"sampler":0,
			"source":0
		},
		{
			"sampler":0,
			"source":1
		},
		{
			"sampler":0,
			"source":0
		},
		{
			"sampler":0,
			"source":2
		},
		{
			"sampler":0,
			"source":3
		},
		{
			"sampler":0,
			"source":4
		},
		{
			"sampler":0,
			"source":5
		},
		{
			"sampler":0,
			"source":6
		},
		{
			"sampler":0,
			"source":7
		}
	],
	"images":[
		{
			"mimeType":"image/png",
			"name":"book_sp1_local",
			"uri":"book_sp1_local.png"
		},
		{
			"mimeType":"image/png",
			"name":"book_red1",
			"uri":"book_red1.png"
		},
		{
			"mimeType":"image/png",
			"name":"book_t1",
			"uri":"book_t1.png"
		},
		{
			"mimeType":"image/png",
			"name":"book_row01_local",
			"uri":"book_row01_local.png"
		},
		{
			"mimeType":"image/png",
			"name":"book_row01",
			"uri":"book_row01.png"
		},
		{
			"mimeType":"image/png",
			"name":"book_row01_s",
			"uri":"book_row01_s.png"
		},
		{
			"mimeType":"image/png",
			"name":"wardrobe1_local",
			"uri":"wardrobe1_local.png"
		},
		{
			"mimeType":"image/jpeg",
			"name":"wardrobe1_d_ed",
			"uri":"wardrobe1_d_ed.jpg"
		}
	],
	"accessors":[
		{
			"bufferView":0,
			"componentType":5126,
			"count":2298,
			"max":[
				0.10284007340669632,
				1.5518128871917725,
				0.06741930544376373
			],
			"min":[
				-0.14484915137290955,
				0.23280970752239227,
				-0.4278169572353363
			],
			"type":"VEC3"
		},
		{
			"bufferView":1,
			"componentType":5126,
			"count":2298,
			"type":"VEC3"
		},
		{
			"bufferView":2,
			"componentType":5126,
			"count":2298,
			"type":"VEC2"
		},
		{
			"bufferView":3,
			"componentType":5123,
			"count":3210,
			"type":"SCALAR"
		},
		{
			"bufferView":4,
			"componentType":5126,
			"count":770,
			"max":[
				0.16299113631248474,
				1.5781867504119873,
				0.41125839948654175
			],
			"min":[
				-0.14469142258167267,
				0.14451351761817932,
				-0.27548670768737793
			],
			"type":"VEC3"
		},
		{
			"bufferView":5,
			"componentType":5126,
			"count":770,
			"type":"VEC3"
		},
		{
			"bufferView":6,
			"componentType":5126,
			"count":770,
			"type":"VEC2"
		},
		{
			"bufferView":7,
			"componentType":5123,
			"count":1002,
			"type":"SCALAR"
		},
		{
			"bufferView":8,
			"componentType":5126,
			"count":202,
			"max":[
				0.15502339601516724,
				1.5781867504119873,
				0.49864134192466736
			],
			"min":[
				0.05974947661161423,
				0.14451351761817932,
				-0.5087754130363464
			],
			"type":"VEC3"
		},
		{
			"bufferView":9,
			"componentType":5126,
			"count":202,
			"type":"VEC3"
		},
		{
			"bufferView":10,
			"componentType":5126,
			"count":202,
			"type":"VEC2"
		},
		{
			"bufferView":11,
			"componentType":5123,
			"count":414,
			"type":"SCALAR"
		},
		{
			"bufferView":12,
			"componentType":5126,
			"count":408,
			"max":[
				0.21086418628692627,
				1.9518272876739502,
				0.6278173923492432
			],
			"min":[
				-0.20354317128658295,
				0.00021797405497636646,
				-0.6278173923492432
			],
			"type":"VEC3"
		},
		{
			"bufferView":13,
			"componentType":5126,
			"count":408,
			"type":"VEC3"
		},
		{
			"bufferView":14,
			"componentType":5126,
			"count":408,
			"type":"VEC2"
		},
		{
			"bufferView":15,
			"componentType":5123,
			"count":840,
			"type":"SCALAR"
		}
	],
	"bufferViews":[
		{
			"buffer":0,
			"byteLength":27576,
			"byteOffset":0,
			"target":34962
		},
		{
			"buffer":0,
			"byteLength":27576,
			"byteOffset":27576,
			"target":34962
		},
		{
			"buffer":0,
			"byteLength":18384,
			"byteOffset":55152,
			"target":34962
		},
		{
			"buffer":0,
			"byteLength":6420,
			"byteOffset":73536,
			"target":34963
		},
		{
			"buffer":0,
			"byteLength":9240,
			"byteOffset":79956,
			"target":34962
		},
		{
			"buffer":0,
			"byteLength":9240,
			"byteOffset":89196,
			"target":34962
		},
		{
			"buffer":0,
			"byteLength":6160,
			"byteOffset":98436,
			"target":34962
		},
		{
			"buffer":0,
			"byteLength":2004,
			"byteOffset":104596,
			"target":34963
		},
		{
			"buffer":0,
			"byteLength":2424,
			"byteOffset":106600,
			"target":34962
		},
		{
			"buffer":0,
			"byteLength":2424,
			"byteOffset":109024,
			"target":34962
		},
		{
			"buffer":0,
			"byteLength":1616,
			"byteOffset":111448,
			"target":34962
		},
		{
			"buffer":0,
			"byteLength":828,
			"byteOffset":113064,
			"target":34963
		},
		{
			"buffer":0,
			"byteLength":4896,
			"byteOffset":113892,
			"target":34962
		},
		{
			"buffer":0,
			"byteLength":4896,
			"byteOffset":118788,
			"target":34962
		},
		{
			"buffer":0,
			"byteLength":3264,
			"byteOffset":123684,
			"target":34962
		},
		{
			"buffer":0,
			"byteLength":1680,
			"byteOffset":126948,
			"target":34963
		}
	],
	"samplers":[
		{
			"magFilter":9729,
			"minFilter":9987
		}
	],
	"buffers":[
		{
			"byteLength":128628,
			"uri":"bookshelf02.bin"
		}
	]
}
