{
	"asset":{
		"generator":"Khronos glTF Blender I/O v4.4.55",
		"version":"2.0"
	},
	"scene":0,
	"scenes":[
		{
			"name":"Scene",
			"nodes":[
				1
			]
		}
	],
	"nodes":[
		{
			"mesh":0,
			"name":"Layer_0",
			"translation":[
				0,
				7.6695427894592285,
				0
			]
		},
		{
			"children":[
				0
			],
			"name":"Pivot-Layer_0",
			"scale":[
				0.02539999969303608,
				0.02539999969303608,
				0.02539999969303608
			],
			"translation":[
				0,
				-0.19480635225772858,
				0
			]
		}
	],
	"materials":[
		{
			"name":"lockplate02_brass",
			"normalTexture":{
				"index":0
			},
			"pbrMetallicRoughness":{
				"baseColorTexture":{
					"index":1
				},
				"metallicFactor":0,
				"metallicRoughnessTexture":{
					"index":2
				}
			}
		},
		{
			"alphaMode":"BLEND",
			"name":"textures/darkmod/decals/dirt/grime_corners_inverted",
			"pbrMetallicRoughness":{
				"baseColorTexture":{
					"index":3
				},
				"metallicFactor":0
			}
		},
		{
			"alphaMode":"BLEND",
			"name":"textures/darkmod/decals/misc/hinge_butterfly_gold",
			"pbrMetallicRoughness":{
				"baseColorTexture":{
					"index":4
				},
				"metallicFactor":0
			}
		},
		{
			"alphaMode":"BLEND",
			"name":"textures/darkmod/glass/stained_glass_hammers_green_twosided",
			"normalTexture":{
				"index":5
			},
			"pbrMetallicRoughness":{
				"baseColorFactor":[
					1,
					1,
					1,
					0.75
				],
				"baseColorTexture":{
					"index":6
				},
				"metallicFactor":0.6000000238418579,
				"metallicRoughnessTexture":{
					"index":7
				}
			}
		},
		{
			"name":"textures/darkmod/wood/boards/wood_brown_walnut",
			"pbrMetallicRoughness":{
				"baseColorTexture":{
					"index":8
				},
				"metallicFactor":0
			}
		},
		{
			"name":"textures/darkmod/wood/panels/wood_walnut_panel02",
			"normalTexture":{
				"index":9
			},
			"pbrMetallicRoughness":{
				"baseColorTexture":{
					"index":10
				},
				"metallicFactor":0,
				"metallicRoughnessTexture":{
					"index":11
				}
			}
		}
	],
	"meshes":[
		{
			"name":"Mesh_0.005",
			"primitives":[
				{
					"attributes":{
						"POSITION":0,
						"NORMAL":1,
						"TEXCOORD_0":2,
						"TEXCOORD_1":3
					},
					"indices":4,
					"material":0
				},
				{
					"attributes":{
						"POSITION":5,
						"NORMAL":6,
						"TEXCOORD_0":7,
						"TEXCOORD_1":8
					},
					"indices":9,
					"material":1
				},
				{
					"attributes":{
						"POSITION":10,
						"NORMAL":11,
						"TEXCOORD_0":12,
						"TEXCOORD_1":13
					},
					"indices":14,
					"material":2
				},
				{
					"attributes":{
						"POSITION":15,
						"NORMAL":16,
						"TEXCOORD_0":17,
						"TEXCOORD_1":18
					},
					"indices":19,
					"material":3
				},
				{
					"attributes":{
						"POSITION":20,
						"NORMAL":21,
						"TEXCOORD_0":22,
						"TEXCOORD_1":23
					},
					"indices":24,
					"material":4
				},
				{
					"attributes":{
						"POSITION":25,
						"NORMAL":26,
						"TEXCOORD_0":27,
						"TEXCOORD_1":28
					},
					"indices":29,
					"material":4
				},
				{
					"attributes":{
						"POSITION":30,
						"NORMAL":31,
						"TEXCOORD_0":32,
						"TEXCOORD_1":33
					},
					"indices":34,
					"material":5
				}
			]
		}
	],
	"textures":[
		{
			"sampler":0,
			"source":0
		},
		{
			"sampler":0,
			"source":1
		},
		{
			"sampler":0,
			"source":2
		},
		{
			"sampler":0,
			"source":3
		},
		{
			"sampler":0,
			"source":4
		},
		{
			"sampler":0,
			"source":5
		},
		{
			"sampler":0,
			"source":6
		},
		{
			"sampler":0,
			"source":7
		},
		{
			"sampler":0,
			"source":8
		},
		{
			"sampler":0,
			"source":9
		},
		{
			"sampler":0,
			"source":10
		},
		{
			"sampler":0,
			"source":11
		}
	],
	"images":[
		{
			"mimeType":"image/png",
			"name":"bc_lockplate02_normal",
			"uri":"bc_lockplate02_normal.png"
		},
		{
			"mimeType":"image/png",
			"name":"bc_lockplate02",
			"uri":"bc_lockplate02.png"
		},
		{
			"mimeType":"image/png",
			"name":"bc_lockplate02_roughness",
			"uri":"bc_lockplate02_roughness.png"
		},
		{
			"mimeType":"image/png",
			"name":"grime_corners_inverted",
			"uri":"grime_corners_inverted.png"
		},
		{
			"mimeType":"image/png",
			"name":"hinge_butterfly_gold",
			"uri":"hinge_butterfly_gold.png"
		},
		{
			"mimeType":"image/png",
			"name":"hammers_green_normal",
			"uri":"hammers_green_normal.png"
		},
		{
			"mimeType":"image/png",
			"name":"hammers_green",
			"uri":"hammers_green.png"
		},
		{
			"mimeType":"image/png",
			"name":"hammers_green_roughness",
			"uri":"hammers_green_roughness.png"
		},
		{
			"mimeType":"image/png",
			"name":"wood_brown_walnut02",
			"uri":"wood_brown_walnut02.png"
		},
		{
			"mimeType":"image/png",
			"name":"walnut_panel01_normal",
			"uri":"walnut_panel01_normal.png"
		},
		{
			"mimeType":"image/png",
			"name":"walnut_panel01",
			"uri":"walnut_panel01.png"
		},
		{
			"mimeType":"image/png",
			"name":"walnut_panel01_roughness",
			"uri":"walnut_panel01_roughness.png"
		}
	],
	"accessors":[
		{
			"bufferView":0,
			"componentType":5126,
			"count":332,
			"max":[
				-35.522560119628906,
				47.29100036621094,
				1.4163367748260498
			],
			"min":[
				-41.45277786254883,
				35.24964141845703,
				-3.254664659500122
			],
			"type":"VEC3"
		},
		{
			"bufferView":1,
			"componentType":5126,
			"count":332,
			"type":"VEC3"
		},
		{
			"bufferView":2,
			"componentType":5126,
			"count":332,
			"type":"VEC2"
		},
		{
			"bufferView":3,
			"componentType":5126,
			"count":332,
			"type":"VEC2"
		},
		{
			"bufferView":4,
			"componentType":5123,
			"count":1194,
			"type":"SCALAR"
		},
		{
			"bufferView":5,
			"componentType":5126,
			"count":160,
			"max":[
				-34.96257019042969,
				47.589393615722656,
				1.243534803390503
			],
			"min":[
				-40.08235549926758,
				33.523529052734375,
				-3.081866502761841
			],
			"type":"VEC3"
		},
		{
			"bufferView":6,
			"componentType":5126,
			"count":160,
			"type":"VEC3"
		},
		{
			"bufferView":7,
			"componentType":5126,
			"count":160,
			"type":"VEC2"
		},
		{
			"bufferView":8,
			"componentType":5126,
			"count":160,
			"type":"VEC2"
		},
		{
			"bufferView":9,
			"componentType":5123,
			"count":480,
			"type":"SCALAR"
		},
		{
			"bufferView":10,
			"componentType":5126,
			"count":36,
			"max":[
				8.021907806396484,
				83.41365051269531,
				0.2809370160102844
			],
			"min":[
				7.863807678222656,
				0.09360364079475403,
				-0.5374630689620972
			],
			"type":"VEC3"
		},
		{
			"bufferView":11,
			"componentType":5126,
			"count":36,
			"type":"VEC3"
		},
		{
			"bufferView":12,
			"componentType":5126,
			"count":36,
			"type":"VEC2"
		},
		{
			"bufferView":13,
			"componentType":5126,
			"count":36,
			"type":"VEC2"
		},
		{
			"bufferView":14,
			"componentType":5123,
			"count":54,
			"type":"SCALAR"
		},
		{
			"bufferView":15,
			"componentType":5126,
			"count":16,
			"max":[
				-0.9920668601989746,
				101.75762939453125,
				-0.699999988079071
			],
			"min":[
				-32.69206619262695,
				30.057628631591797,
				-2.1826584339141846
			],
			"type":"VEC3"
		},
		{
			"bufferView":16,
			"componentType":5126,
			"count":16,
			"type":"VEC3"
		},
		{
			"bufferView":17,
			"componentType":5126,
			"count":16,
			"type":"VEC2"
		},
		{
			"bufferView":18,
			"componentType":5126,
			"count":16,
			"type":"VEC2"
		},
		{
			"bufferView":19,
			"componentType":5123,
			"count":24,
			"type":"SCALAR"
		},
		{
			"bufferView":20,
			"componentType":5126,
			"count":254,
			"max":[
				7.880643367767334,
				107.77223205566406,
				1.7911803722381592
			],
			"min":[
				-41.40277862548828,
				-7.942508220672607,
				-3.629504442214966
			],
			"type":"VEC3"
		},
		{
			"bufferView":21,
			"componentType":5126,
			"count":254,
			"type":"VEC3"
		},
		{
			"bufferView":22,
			"componentType":5126,
			"count":254,
			"type":"VEC2"
		},
		{
			"bufferView":23,
			"componentType":5126,
			"count":254,
			"type":"VEC2"
		},
		{
			"bufferView":24,
			"componentType":5123,
			"count":492,
			"type":"SCALAR"
		},
		{
			"bufferView":25,
			"componentType":5126,
			"count":14,
			"max":[
				-4.151340007781982,
				21.65706443786621,
				0.128071591258049
			],
			"min":[
				-29.345857620239258,
				6.198794841766357,
				-2.074397325515747
			],
			"type":"VEC3"
		},
		{
			"bufferView":26,
			"componentType":5126,
			"count":14,
			"type":"VEC3"
		},
		{
			"bufferView":27,
			"componentType":5126,
			"count":14,
			"type":"VEC2"
		},
		{
			"bufferView":28,
			"componentType":5126,
			"count":14,
			"type":"VEC2"
		},
		{
			"bufferView":29,
			"componentType":5123,
			"count":36,
			"type":"SCALAR"
		},
		{
			"bufferView":30,
			"componentType":5126,
			"count":96,
			"max":[
				-0.9533190727233887,
				25.295421600341797,
				1.7911803722381592
			],
			"min":[
				-32.56480026245117,
				2.332728862762451,
				-3.629504442214966
			],
			"type":"VEC3"
		},
		{
			"bufferView":31,
			"componentType":5126,
			"count":96,
			"type":"VEC3"
		},
		{
			"bufferView":32,
			"componentType":5126,
			"count":96,
			"type":"VEC2"
		},
		{
			"bufferView":33,
			"componentType":5126,
			"count":96,
			"type":"VEC2"
		},
		{
			"bufferView":34,
			"componentType":5123,
			"count":216,
			"type":"SCALAR"
		}
	],
	"bufferViews":[
		{
			"buffer":0,
			"byteLength":3984,
			"byteOffset":0,
			"target":34962
		},
		{
			"buffer":0,
			"byteLength":3984,
			"byteOffset":3984,
			"target":34962
		},
		{
			"buffer":0,
			"byteLength":2656,
			"byteOffset":7968,
			"target":34962
		},
		{
			"buffer":0,
			"byteLength":2656,
			"byteOffset":10624,
			"target":34962
		},
		{
			"buffer":0,
			"byteLength":2388,
			"byteOffset":13280,
			"target":34963
		},
		{
			"buffer":0,
			"byteLength":1920,
			"byteOffset":15668,
			"target":34962
		},
		{
			"buffer":0,
			"byteLength":1920,
			"byteOffset":17588,
			"target":34962
		},
		{
			"buffer":0,
			"byteLength":1280,
			"byteOffset":19508,
			"target":34962
		},
		{
			"buffer":0,
			"byteLength":1280,
			"byteOffset":20788,
			"target":34962
		},
		{
			"buffer":0,
			"byteLength":960,
			"byteOffset":22068,
			"target":34963
		},
		{
			"buffer":0,
			"byteLength":432,
			"byteOffset":23028,
			"target":34962
		},
		{
			"buffer":0,
			"byteLength":432,
			"byteOffset":23460,
			"target":34962
		},
		{
			"buffer":0,
			"byteLength":288,
			"byteOffset":23892,
			"target":34962
		},
		{
			"buffer":0,
			"byteLength":288,
			"byteOffset":24180,
			"target":34962
		},
		{
			"buffer":0,
			"byteLength":108,
			"byteOffset":24468,
			"target":34963
		},
		{
			"buffer":0,
			"byteLength":192,
			"byteOffset":24576,
			"target":34962
		},
		{
			"buffer":0,
			"byteLength":192,
			"byteOffset":24768,
			"target":34962
		},
		{
			"buffer":0,
			"byteLength":128,
			"byteOffset":24960,
			"target":34962
		},
		{
			"buffer":0,
			"byteLength":128,
			"byteOffset":25088,
			"target":34962
		},
		{
			"buffer":0,
			"byteLength":48,
			"byteOffset":25216,
			"target":34963
		},
		{
			"buffer":0,
			"byteLength":3048,
			"byteOffset":25264,
			"target":34962
		},
		{
			"buffer":0,
			"byteLength":3048,
			"byteOffset":28312,
			"target":34962
		},
		{
			"buffer":0,
			"byteLength":2032,
			"byteOffset":31360,
			"target":34962
		},
		{
			"buffer":0,
			"byteLength":2032,
			"byteOffset":33392,
			"target":34962
		},
		{
			"buffer":0,
			"byteLength":984,
			"byteOffset":35424,
			"target":34963
		},
		{
			"buffer":0,
			"byteLength":168,
			"byteOffset":36408,
			"target":34962
		},
		{
			"buffer":0,
			"byteLength":168,
			"byteOffset":36576,
			"target":34962
		},
		{
			"buffer":0,
			"byteLength":112,
			"byteOffset":36744,
			"target":34962
		},
		{
			"buffer":0,
			"byteLength":112,
			"byteOffset":36856,
			"target":34962
		},
		{
			"buffer":0,
			"byteLength":72,
			"byteOffset":36968,
			"target":34963
		},
		{
			"buffer":0,
			"byteLength":1152,
			"byteOffset":37040,
			"target":34962
		},
		{
			"buffer":0,
			"byteLength":1152,
			"byteOffset":38192,
			"target":34962
		},
		{
			"buffer":0,
			"byteLength":768,
			"byteOffset":39344,
			"target":34962
		},
		{
			"buffer":0,
			"byteLength":768,
			"byteOffset":40112,
			"target":34962
		},
		{
			"buffer":0,
			"byteLength":432,
			"byteOffset":40880,
			"target":34963
		}
	],
	"samplers":[
		{
			"magFilter":9729,
			"minFilter":9987
		}
	],
	"buffers":[
		{
			"byteLength":41312,
			"uri":"door_stained_glass_118x52.bin"
		}
	]
}
