{
	"asset":{
		"generator":"Khronos glTF Blender I/O v4.4.55",
		"version":"2.0"
	},
	"scene":0,
	"scenes":[
		{
			"name":"Scene",
			"nodes":[
				0
			]
		}
	],
	"nodes":[
		{
			"mesh":0,
			"name":"round_lantern_sitting",
			"scale":[
				0.018651431426405907,
				0.018651431426405907,
				0.018651431426405907
			]
		}
	],
	"materials":[
		{
			"name":"textures/darkmod/metal/flat/iron_rough.001",
			"normalTexture":{
				"index":0
			},
			"pbrMetallicRoughness":{
				"baseColorTexture":{
					"index":1
				},
				"metallicFactor":0,
				"metallicRoughnessTexture":{
					"index":2
				}
			}
		},
		{
			"emissiveFactor":[
				1,
				0.20198553800582886,
				0.054606400430202484
			],
			"name":"textures/darkmod/window/lamp_glass_lit_opaque",
			"pbrMetallicRoughness":{
				"baseColorTexture":{
					"index":3
				},
				"metallicFactor":0.6863636374473572,
				"roughnessFactor":0.7272727489471436
			}
		}
	],
	"meshes":[
		{
			"name":"Mesh_0.066",
			"primitives":[
				{
					"attributes":{
						"POSITION":0,
						"NORMAL":1,
						"TEXCOORD_0":2
					},
					"indices":3,
					"material":0
				},
				{
					"attributes":{
						"POSITION":4,
						"NORMAL":5,
						"TEXCOORD_0":6
					},
					"indices":7,
					"material":1
				}
			]
		}
	],
	"textures":[
		{
			"sampler":0,
			"source":0
		},
		{
			"sampler":0,
			"source":1
		},
		{
			"sampler":0,
			"source":2
		},
		{
			"sampler":0,
			"source":3
		}
	],
	"images":[
		{
			"mimeType":"image/png",
			"name":"iron_rough_normal",
			"uri":"iron_rough_normal.png"
		},
		{
			"mimeType":"image/png",
			"name":"iron_rough",
			"uri":"iron_rough.png"
		},
		{
			"mimeType":"image/png",
			"name":"iron_rough_roughness",
			"uri":"iron_rough_roughness.png"
		},
		{
			"mimeType":"image/png",
			"name":"lamp_glass_lit",
			"uri":"lamp_glass_lit.png"
		}
	],
	"accessors":[
		{
			"bufferView":0,
			"componentType":5126,
			"count":446,
			"max":[
				9.116904258728027,
				34.87565231323242,
				9.370514869689941
			],
			"min":[
				-9.116904258728027,
				0.0153350830078125,
				-9.370513916015625
			],
			"type":"VEC3"
		},
		{
			"bufferView":1,
			"componentType":5126,
			"count":446,
			"type":"VEC3"
		},
		{
			"bufferView":2,
			"componentType":5126,
			"count":446,
			"type":"VEC2"
		},
		{
			"bufferView":3,
			"componentType":5123,
			"count":1146,
			"type":"SCALAR"
		},
		{
			"bufferView":4,
			"componentType":5126,
			"count":32,
			"max":[
				7.029587268829346,
				17.51180076599121,
				7.225135326385498
			],
			"min":[
				-7.0295867919921875,
				2.367877960205078,
				-7.225137710571289
			],
			"type":"VEC3"
		},
		{
			"bufferView":5,
			"componentType":5126,
			"count":32,
			"type":"VEC3"
		},
		{
			"bufferView":6,
			"componentType":5126,
			"count":32,
			"type":"VEC2"
		},
		{
			"bufferView":7,
			"componentType":5123,
			"count":48,
			"type":"SCALAR"
		}
	],
	"bufferViews":[
		{
			"buffer":0,
			"byteLength":5352,
			"byteOffset":0,
			"target":34962
		},
		{
			"buffer":0,
			"byteLength":5352,
			"byteOffset":5352,
			"target":34962
		},
		{
			"buffer":0,
			"byteLength":3568,
			"byteOffset":10704,
			"target":34962
		},
		{
			"buffer":0,
			"byteLength":2292,
			"byteOffset":14272,
			"target":34963
		},
		{
			"buffer":0,
			"byteLength":384,
			"byteOffset":16564,
			"target":34962
		},
		{
			"buffer":0,
			"byteLength":384,
			"byteOffset":16948,
			"target":34962
		},
		{
			"buffer":0,
			"byteLength":256,
			"byteOffset":17332,
			"target":34962
		},
		{
			"buffer":0,
			"byteLength":96,
			"byteOffset":17588,
			"target":34963
		}
	],
	"samplers":[
		{
			"magFilter":9729,
			"minFilter":9987
		}
	],
	"buffers":[
		{
			"byteLength":17684,
			"uri":"round_lantern_sitting.bin"
		}
	]
}
