{
  "accessors": [
    {
      "bufferView": 0,
      "count": 603,
      "componentType": 5126,
      "type": "VEC3",
      "min": [
        -1.17689847946167,
        0.0002778897469397634,
        -1.1793432235717771
      ],
      "max": [
        1.17689847946167,
        1.2228811979293823,
        1.1793432235717771
      ]
    },
    {
      "bufferView": 1,
      "count": 603,
      "componentType": 5126,
      "type": "VEC3"
    },
    {
      "bufferView": 2,
      "count": 603,
      "componentType": 5126,
      "type": "VEC2"
    },
    {
      "bufferView": 3,
      "count": 2568,
      "componentType": 5123,
      "type": "SCALAR"
    }
  ],
  "asset": {
    "generator": "Khronos glTF Blender I/O v4.4.55",
    "version": "2.0"
  },
  "buffers": [
    {
      "byteLength": 24432,
      "uri": "rtable1.bin"
    }
  ],
  "bufferViews": [
    {
      "buffer": 0,
      "byteLength": 7236,
      "byteOffset": 0,
      "target": 34962
    },
    {
      "buffer": 0,
      "byteLength": 7236,
      "byteOffset": 7236,
      "target": 34962
    },
    {
      "buffer": 0,
      "byteLength": 4824,
      "byteOffset": 14472,
      "target": 34962
    },
    {
      "buffer": 0,
      "byteLength": 5136,
      "byteOffset": 19296,
      "target": 34963
    }
  ],
  "scene": 0,
  "images": [
    {
      "mimeType": "image/ktx2",
      "name": "rtable2b_ed",
      "uri": "bc7_ktx2/rtable2b_ed_bc7.ktx2"
    }
  ],
  "materials": [
    {
      "alphaMode": "OPAQUE",
      "doubleSided": false,
      "name": "tdm_table_round_01",
      "pbrMetallicRoughness": {
        "baseColorFactor": [
          0.8,
          0.8,
          0.8,
          1.0
        ],
        "baseColorTexture": {
          "index": 0,
          "texCoord": 0
        },
        "metallicFactor": 0.0,
        "roughnessFactor": 0.7470178
      },
      "emissiveFactor": [
        0.0,
        0.0,
        0.0
      ]
    }
  ],
  "meshes": [
    {
      "name": "Mesh_0.013",
      "primitives": [
        {
          "attributes": {
            "POSITION": 0,
            "NORMAL": 1,
            "TEXCOORD_0": 2
          },
          "indices": 3,
          "material": 0
        }
      ]
    }
  ],
  "nodes": [
    {
      "mesh": 0,
      "name": "rtable1"
    }
  ],
  "samplers": [
    {
      "magFilter": 9729,
      "minFilter": 9987,
      "wrapS": 10497,
      "wrapT": 10497
    }
  ],
  "scenes": [
    {
      "name": "Scene",
      "nodes": [
        0
      ]
    }
  ],
  "textures": [
    {
      "sampler": 0,
      "source": 0
    }
  ]
}