{
  "accessors": [
    {
      "bufferView": 0,
      "count": 443,
      "componentType": 5126,
      "type": "VEC3",
      "min": [
        -9.923090934753418,
        0.008693695068359375,
        -11.637279510498049
      ],
      "max": [
        9.923090934753418,
        49.68634796142578,
        11.637279510498049
      ]
    },
    {
      "bufferView": 1,
      "count": 443,
      "componentType": 5126,
      "type": "VEC3"
    },
    {
      "bufferView": 2,
      "count": 443,
      "componentType": 5126,
      "type": "VEC2"
    },
    {
      "bufferView": 3,
      "count": 1206,
      "componentType": 5123,
      "type": "SCALAR"
    }
  ],
  "asset": {
    "generator": "Khronos glTF Blender I/O v4.4.55",
    "version": "2.0"
  },
  "buffers": [
    {
      "byteLength": 16588,
      "uri": "wchair1.bin"
    }
  ],
  "bufferViews": [
    {
      "buffer": 0,
      "byteLength": 5316,
      "byteOffset": 0,
      "target": 34962
    },
    {
      "buffer": 0,
      "byteLength": 5316,
      "byteOffset": 5316,
      "target": 34962
    },
    {
      "buffer": 0,
      "byteLength": 3544,
      "byteOffset": 10632,
      "target": 34962
    },
    {
      "buffer": 0,
      "byteLength": 2412,
      "byteOffset": 14176,
      "target": 34963
    }
  ],
  "scene": 0,
  "images": [
    {
      "mimeType": "image/ktx2",
      "name": "wchair1_local",
      "uri": "bc7_ktx2/wchair1_local_bc7.ktx2"
    },
    {
      "mimeType": "image/ktx2",
      "name": "wchair1_d_ed",
      "uri": "bc7_ktx2/wchair1_d_ed_bc7.ktx2"
    }
  ],
  "materials": [
    {
      "alphaMode": "OPAQUE",
      "doubleSided": false,
      "name": "wchair1.004",
      "pbrMetallicRoughness": {
        "baseColorFactor": [
          1.0,
          1.0,
          1.0,
          1.0
        ],
        "baseColorTexture": {
          "index": 1,
          "texCoord": 0
        },
        "metallicFactor": 0.0,
        "roughnessFactor": 1.0
      },
      "normalTexture": {
        "index": 0,
        "scale": 1.0,
        "texCoord": 0
      },
      "emissiveFactor": [
        0.0,
        0.0,
        0.0
      ]
    }
  ],
  "meshes": [
    {
      "name": "Mesh_0.064",
      "primitives": [
        {
          "attributes": {
            "POSITION": 0,
            "NORMAL": 1,
            "TEXCOORD_0": 2
          },
          "indices": 3,
          "material": 0
        }
      ]
    }
  ],
  "nodes": [
    {
      "mesh": 0,
      "name": "wchair1",
      "scale": [
        0.033135973,
        0.033135973,
        0.033135973
      ]
    }
  ],
  "samplers": [
    {
      "magFilter": 9729,
      "minFilter": 9987,
      "wrapS": 10497,
      "wrapT": 10497
    }
  ],
  "scenes": [
    {
      "name": "Scene",
      "nodes": [
        0
      ]
    }
  ],
  "textures": [
    {
      "sampler": 0,
      "source": 0
    },
    {
      "sampler": 0,
      "source": 1
    }
  ]
}