{
  "accessors": [
    {
      "bufferView": 0,
      "count": 300,
      "componentType": 5126,
      "type": "VEC3",
      "min": [
        -12,
        0.1085052490234375,
        -16.06999969482422
      ],
      "max": [
        12,
        20.10850524902344,
        10.43000030517578
      ]
    },
    {
      "bufferView": 1,
      "count": 300,
      "componentType": 5126,
      "type": "VEC3"
    },
    {
      "bufferView": 2,
      "count": 300,
      "componentType": 5126,
      "type": "VEC2"
    },
    {
      "bufferView": 3,
      "count": 828,
      "componentType": 5123,
      "type": "SCALAR"
    }
  ],
  "asset": {
    "generator": "Khronos glTF Blender I/O v4.4.55",
    "version": "2.0"
  },
  "buffers": [
    {
      "byteLength": 11256,
      "uri": "grate.bin"
    }
  ],
  "bufferViews": [
    {
      "buffer": 0,
      "byteLength": 3600,
      "byteOffset": 0,
      "target": 34962
    },
    {
      "buffer": 0,
      "byteLength": 3600,
      "byteOffset": 3600,
      "target": 34962
    },
    {
      "buffer": 0,
      "byteLength": 2400,
      "byteOffset": 7200,
      "target": 34962
    },
    {
      "buffer": 0,
      "byteLength": 1656,
      "byteOffset": 9600,
      "target": 34963
    }
  ],
  "scene": 0,
  "images": [
    {
      "mimeType": "image/ktx2",
      "name": "grate_local",
      "uri": "bc7_ktx2/grate_local_bc7.ktx2"
    },
    {
      "mimeType": "image/ktx2",
      "name": "grate_ed",
      "uri": "bc7_ktx2/grate_ed_bc7.ktx2"
    }
  ],
  "materials": [
    {
      "alphaMode": "OPAQUE",
      "doubleSided": false,
      "name": "grate",
      "pbrMetallicRoughness": {
        "baseColorFactor": [
          1.0,
          1.0,
          1.0,
          1.0
        ],
        "baseColorTexture": {
          "index": 1,
          "texCoord": 0
        },
        "metallicFactor": 0.0,
        "roughnessFactor": 1.0
      },
      "normalTexture": {
        "index": 0,
        "scale": 1.0,
        "texCoord": 0
      },
      "emissiveFactor": [
        0.0,
        0.0,
        0.0
      ]
    }
  ],
  "meshes": [
    {
      "name": "Mesh_0.008",
      "primitives": [
        {
          "attributes": {
            "POSITION": 0,
            "NORMAL": 1,
            "TEXCOORD_0": 2
          },
          "indices": 3,
          "material": 0
        }
      ]
    }
  ],
  "nodes": [
    {
      "mesh": 0,
      "name": "grate",
      "scale": [
        0.050681,
        0.050681,
        0.050681
      ]
    }
  ],
  "samplers": [
    {
      "magFilter": 9729,
      "minFilter": 9987,
      "wrapS": 10497,
      "wrapT": 10497
    }
  ],
  "scenes": [
    {
      "name": "Scene",
      "nodes": [
        0
      ]
    }
  ],
  "textures": [
    {
      "sampler": 0,
      "source": 0
    },
    {
      "sampler": 0,
      "source": 1
    }
  ]
}