{
	"asset":{
		"generator":"Khronos glTF Blender I/O v4.4.55",
		"version":"2.0"
	},
	"scene":0,
	"scenes":[
		{
			"name":"Scene",
			"nodes":[
				1
			]
		}
	],
	"nodes":[
		{
			"mesh":0,
			"name":"Layer_0"
		},
		{
			"children":[
				0
			],
			"name":"Pivot-Layer_0",
			"scale":[
				0.02539999969303608,
				0.02539999969303608,
				0.02539999969303608
			],
			"translation":[
				0,
				0.24282951653003693,
				0
			]
		}
	],
	"materials":[
		{
			"name":"barrel01.002",
			"normalTexture":{
				"index":0
			},
			"pbrMetallicRoughness":{
				"baseColorTexture":{
					"index":1
				},
				"metallicFactor":0
			}
		},
		{
			"name":"crate01.004",
			"normalTexture":{
				"index":2
			},
			"pbrMetallicRoughness":{
				"baseColorTexture":{
					"index":3
				},
				"metallicFactor":0
			}
		}
	],
	"meshes":[
		{
			"name":"Mesh_0.005",
			"primitives":[
				{
					"attributes":{
						"POSITION":0,
						"NORMAL":1,
						"TEXCOORD_0":2
					},
					"indices":3,
					"material":0
				},
				{
					"attributes":{
						"POSITION":4,
						"NORMAL":5,
						"TEXCOORD_0":6
					},
					"indices":7,
					"material":1
				}
			]
		}
	],
	"textures":[
		{
			"sampler":0,
			"source":0
		},
		{
			"sampler":0,
			"source":1
		},
		{
			"sampler":0,
			"source":2
		},
		{
			"sampler":0,
			"source":3
		}
	],
	"images":[
		{
			"mimeType":"image/png",
			"name":"barrell_large_normal",
			"uri":"barrell_large_normal.png"
		},
		{
			"mimeType":"image/png",
			"name":"barrell_large",
			"uri":"barrell_large.png"
		},
		{
			"mimeType":"image/png",
			"name":"barrell_large_end_normal",
			"uri":"barrell_large_end_normal.png"
		},
		{
			"mimeType":"image/png",
			"name":"barrell_large_end",
			"uri":"barrell_large_end.png"
		}
	],
	"accessors":[
		{
			"bufferView":0,
			"componentType":5126,
			"count":167,
			"max":[
				17.416799545288086,
				33.204898834228516,
				17.916799545288086
			],
			"min":[
				-17.416799545288086,
				-17.439599990844727,
				-16.916799545288086
			],
			"type":"VEC3"
		},
		{
			"bufferView":1,
			"componentType":5126,
			"count":167,
			"type":"VEC3"
		},
		{
			"bufferView":2,
			"componentType":5126,
			"count":167,
			"type":"VEC2"
		},
		{
			"bufferView":3,
			"componentType":5123,
			"count":504,
			"type":"SCALAR"
		},
		{
			"bufferView":4,
			"componentType":5126,
			"count":27,
			"max":[
				12.658499717712402,
				31.207399368286133,
				13.158499717712402
			],
			"min":[
				-12.658499717712402,
				-15.362299919128418,
				-12.158499717712402
			],
			"type":"VEC3"
		},
		{
			"bufferView":5,
			"componentType":5126,
			"count":27,
			"type":"VEC3"
		},
		{
			"bufferView":6,
			"componentType":5126,
			"count":27,
			"type":"VEC2"
		},
		{
			"bufferView":7,
			"componentType":5123,
			"count":72,
			"type":"SCALAR"
		}
	],
	"bufferViews":[
		{
			"buffer":0,
			"byteLength":2004,
			"byteOffset":0,
			"target":34962
		},
		{
			"buffer":0,
			"byteLength":2004,
			"byteOffset":2004,
			"target":34962
		},
		{
			"buffer":0,
			"byteLength":1336,
			"byteOffset":4008,
			"target":34962
		},
		{
			"buffer":0,
			"byteLength":1008,
			"byteOffset":5344,
			"target":34963
		},
		{
			"buffer":0,
			"byteLength":324,
			"byteOffset":6352,
			"target":34962
		},
		{
			"buffer":0,
			"byteLength":324,
			"byteOffset":6676,
			"target":34962
		},
		{
			"buffer":0,
			"byteLength":216,
			"byteOffset":7000,
			"target":34962
		},
		{
			"buffer":0,
			"byteLength":144,
			"byteOffset":7216,
			"target":34963
		}
	],
	"samplers":[
		{
			"magFilter":9729,
			"minFilter":9987
		}
	],
	"buffers":[
		{
			"byteLength":7360,
			"uri":"barrel_large_closed.bin"
		}
	]
}
