{
	"asset":{
		"generator":"Khronos glTF Blender I/O v4.4.55",
		"version":"2.0"
	},
	"scene":0,
	"scenes":[
		{
			"name":"Scene",
			"nodes":[
				1
			]
		}
	],
	"nodes":[
		{
			"mesh":0,
			"name":"Layer_0",
			"scale":[
				1.1492319107055664,
				1.1492319107055664,
				1.1492319107055664
			],
			"translation":[
				0,
				-7.859619140625,
				0
			]
		},
		{
			"children":[
				0
			],
			"name":"Pivot-Layer_0",
			"scale":[
				0.02539999969303608,
				0.02539999969303608,
				0.02539999969303608
			]
		}
	],
	"materials":[
		{
			"name":"barrel01.003",
			"normalTexture":{
				"index":0
			},
			"pbrMetallicRoughness":{
				"baseColorTexture":{
					"index":1
				},
				"metallicFactor":0.30000001192092896,
				"metallicRoughnessTexture":{
					"index":2
				}
			}
		}
	],
	"meshes":[
		{
			"name":"Mesh_0.009",
			"primitives":[
				{
					"attributes":{
						"POSITION":0,
						"NORMAL":1,
						"TEXCOORD_0":2
					},
					"indices":3,
					"material":0
				}
			]
		}
	],
	"textures":[
		{
			"sampler":0,
			"source":0
		},
		{
			"sampler":0,
			"source":1
		},
		{
			"sampler":0,
			"source":2
		}
	],
	"images":[
		{
			"mimeType":"image/png",
			"name":"barrel01_normal",
			"uri":"barrel01_normal.png"
		},
		{
			"mimeType":"image/png",
			"name":"barrel01",
			"uri":"barrel01.png"
		},
		{
			"mimeType":"image/png",
			"name":"barrel01_roughness",
			"uri":"barrel01_roughness.png"
		}
	],
	"accessors":[
		{
			"bufferView":0,
			"componentType":5126,
			"count":194,
			"max":[
				17.416799545288086,
				50.66332244873047,
				17.916799545288086
			],
			"min":[
				-17.416799545288086,
				0.01882171630859375,
				-16.916799545288086
			],
			"type":"VEC3"
		},
		{
			"bufferView":1,
			"componentType":5126,
			"count":194,
			"type":"VEC3"
		},
		{
			"bufferView":2,
			"componentType":5126,
			"count":194,
			"type":"VEC2"
		},
		{
			"bufferView":3,
			"componentType":5123,
			"count":576,
			"type":"SCALAR"
		}
	],
	"bufferViews":[
		{
			"buffer":0,
			"byteLength":2328,
			"byteOffset":0,
			"target":34962
		},
		{
			"buffer":0,
			"byteLength":2328,
			"byteOffset":2328,
			"target":34962
		},
		{
			"buffer":0,
			"byteLength":1552,
			"byteOffset":4656,
			"target":34962
		},
		{
			"buffer":0,
			"byteLength":1152,
			"byteOffset":6208,
			"target":34963
		}
	],
	"samplers":[
		{
			"magFilter":9729,
			"minFilter":9987
		}
	],
	"buffers":[
		{
			"byteLength":7360,
			"uri":"barrel01.bin"
		}
	]
}
