{
	"asset":{
		"generator":"Khronos glTF Blender I/O v4.4.55",
		"version":"2.0"
	},
	"scene":0,
	"scenes":[
		{
			"name":"Scene",
			"nodes":[
				0
			]
		}
	],
	"nodes":[
		{
			"mesh":0,
			"name":"crate01",
			"scale":[
				0.050348520278930664,
				0.050348520278930664,
				0.050348520278930664
			],
			"translation":[
				0,
				-0.2285774052143097,
				0
			]
		}
	],
	"materials":[
		{
			"name":"crate01.006",
			"normalTexture":{
				"index":0
			},
			"pbrMetallicRoughness":{
				"baseColorTexture":{
					"index":1
				},
				"metallicFactor":0
			}
		}
	],
	"meshes":[
		{
			"name":"Mesh_0.007",
			"primitives":[
				{
					"attributes":{
						"POSITION":0,
						"NORMAL":1,
						"TEXCOORD_0":2
					},
					"indices":3,
					"material":0
				}
			]
		}
	],
	"textures":[
		{
			"sampler":0,
			"source":0
		},
		{
			"sampler":0,
			"source":1
		}
	],
	"images":[
		{
			"mimeType":"image/png",
			"name":"crate01_normal",
			"uri":"crate01_normal.png"
		},
		{
			"mimeType":"image/png",
			"name":"crate01_d",
			"uri":"crate01_d.png"
		}
	],
	"accessors":[
		{
			"bufferView":0,
			"componentType":5126,
			"count":46,
			"max":[
				13.949999809265137,
				27.929317474365234,
				13.949999809265137
			],
			"min":[
				-13.949999809265137,
				0.029317855834960938,
				-13.949999809265137
			],
			"type":"VEC3"
		},
		{
			"bufferView":1,
			"componentType":5126,
			"count":46,
			"type":"VEC3"
		},
		{
			"bufferView":2,
			"componentType":5126,
			"count":46,
			"type":"VEC2"
		},
		{
			"bufferView":3,
			"componentType":5123,
			"count":180,
			"type":"SCALAR"
		}
	],
	"bufferViews":[
		{
			"buffer":0,
			"byteLength":552,
			"byteOffset":0,
			"target":34962
		},
		{
			"buffer":0,
			"byteLength":552,
			"byteOffset":552,
			"target":34962
		},
		{
			"buffer":0,
			"byteLength":368,
			"byteOffset":1104,
			"target":34962
		},
		{
			"buffer":0,
			"byteLength":360,
			"byteOffset":1472,
			"target":34963
		}
	],
	"samplers":[
		{
			"magFilter":9729,
			"minFilter":9987
		}
	],
	"buffers":[
		{
			"byteLength":1832,
			"uri":"crate01_big.bin"
		}
	]
}
