{
	"asset":{
		"generator":"Khronos glTF Blender I/O v4.4.55",
		"version":"2.0"
	},
	"scene":0,
	"scenes":[
		{
			"name":"Scene",
			"nodes":[
				1
			]
		}
	],
	"nodes":[
		{
			"mesh":0,
			"name":"package_medium",
			"rotation":[
				0,
				0.7071068286895752,
				0,
				0.7071067094802856
			]
		},
		{
			"children":[
				0
			],
			"name":"Pivot-package_medium",
			"scale":[
				0.02539999969303608,
				0.02539999969303608,
				0.02539999969303608
			]
		}
	],
	"materials":[
		{
			"name":"tdm_wrapped",
			"normalTexture":{
				"index":0
			},
			"pbrMetallicRoughness":{
				"baseColorTexture":{
					"index":1
				},
				"metallicFactor":0
			}
		}
	],
	"meshes":[
		{
			"name":"Mesh_0.012",
			"primitives":[
				{
					"attributes":{
						"POSITION":0,
						"NORMAL":1,
						"TEXCOORD_0":2
					},
					"indices":3,
					"material":0
				}
			]
		}
	],
	"textures":[
		{
			"sampler":0,
			"source":0
		},
		{
			"sampler":0,
			"source":1
		}
	],
	"images":[
		{
			"mimeType":"image/png",
			"name":"package_normal",
			"uri":"package_normal.png"
		},
		{
			"mimeType":"image/png",
			"name":"package",
			"uri":"package.png"
		}
	],
	"accessors":[
		{
			"bufferView":0,
			"componentType":5126,
			"count":242,
			"max":[
				18.003000259399414,
				20.22397232055664,
				28.000099182128906
			],
			"min":[
				-18.003000259399414,
				-7.755627632141113,
				-28
			],
			"type":"VEC3"
		},
		{
			"bufferView":1,
			"componentType":5126,
			"count":242,
			"type":"VEC3"
		},
		{
			"bufferView":2,
			"componentType":5126,
			"count":242,
			"type":"VEC2"
		},
		{
			"bufferView":3,
			"componentType":5123,
			"count":1248,
			"type":"SCALAR"
		}
	],
	"bufferViews":[
		{
			"buffer":0,
			"byteLength":2904,
			"byteOffset":0,
			"target":34962
		},
		{
			"buffer":0,
			"byteLength":2904,
			"byteOffset":2904,
			"target":34962
		},
		{
			"buffer":0,
			"byteLength":1936,
			"byteOffset":5808,
			"target":34962
		},
		{
			"buffer":0,
			"byteLength":2496,
			"byteOffset":7744,
			"target":34963
		}
	],
	"samplers":[
		{
			"magFilter":9729,
			"minFilter":9987
		}
	],
	"buffers":[
		{
			"byteLength":10240,
			"uri":"package_medium.bin"
		}
	]
}
