{
	"asset":{
		"generator":"Khronos glTF Blender I/O v4.4.55",
		"version":"2.0"
	},
	"scene":0,
	"scenes":[
		{
			"name":"Scene",
			"nodes":[
				0,
				2
			]
		}
	],
	"nodes":[
		{
			"name":"Pivot-package_medium",
			"scale":[
				0.02539999969303608,
				0.02539999969303608,
				0.02539999969303608
			]
		},
		{
			"mesh":0,
			"name":"package_small",
			"rotation":[
				0,
				0.7071068286895752,
				0,
				0.7071067094802856
			]
		},
		{
			"children":[
				1
			],
			"name":"Pivot-package_small",
			"scale":[
				0.02539999969303608,
				0.02539999969303608,
				0.02539999969303608
			]
		}
	],
	"materials":[
		{
			"name":"tdm_wrapped",
			"normalTexture":{
				"index":0
			},
			"pbrMetallicRoughness":{
				"baseColorTexture":{
					"index":1
				},
				"metallicFactor":0
			}
		}
	],
	"meshes":[
		{
			"name":"Mesh_0.013",
			"primitives":[
				{
					"attributes":{
						"POSITION":0,
						"NORMAL":1,
						"TEXCOORD_0":2
					},
					"indices":3,
					"material":0
				}
			]
		}
	],
	"textures":[
		{
			"sampler":0,
			"source":0
		},
		{
			"sampler":0,
			"source":1
		}
	],
	"images":[
		{
			"mimeType":"image/png",
			"name":"package_normal",
			"uri":"package_normal.png"
		},
		{
			"mimeType":"image/png",
			"name":"package",
			"uri":"package.png"
		}
	],
	"accessors":[
		{
			"bufferView":0,
			"componentType":5126,
			"count":201,
			"max":[
				16.006799697875977,
				8.00570011138916,
				27.989402770996094
			],
			"min":[
				-16.006799697875977,
				-8.00570011138916,
				-27.989402770996094
			],
			"type":"VEC3"
		},
		{
			"bufferView":1,
			"componentType":5126,
			"count":201,
			"type":"VEC3"
		},
		{
			"bufferView":2,
			"componentType":5126,
			"count":201,
			"type":"VEC2"
		},
		{
			"bufferView":3,
			"componentType":5123,
			"count":1008,
			"type":"SCALAR"
		}
	],
	"bufferViews":[
		{
			"buffer":0,
			"byteLength":2412,
			"byteOffset":0,
			"target":34962
		},
		{
			"buffer":0,
			"byteLength":2412,
			"byteOffset":2412,
			"target":34962
		},
		{
			"buffer":0,
			"byteLength":1608,
			"byteOffset":4824,
			"target":34962
		},
		{
			"buffer":0,
			"byteLength":2016,
			"byteOffset":6432,
			"target":34963
		}
	],
	"samplers":[
		{
			"magFilter":9729,
			"minFilter":9987
		}
	],
	"buffers":[
		{
			"byteLength":8448,
			"uri":"package_small.bin"
		}
	]
}
