{
	"asset":{
		"generator":"Khronos glTF Blender I/O v4.4.55",
		"version":"2.0"
	},
	"scene":0,
	"scenes":[
		{
			"name":"Scene",
			"nodes":[
				1
			]
		}
	],
	"nodes":[
		{
			"mesh":0,
			"name":"ivy_part08",
			"scale":[
				0.02539999969303608,
				0.02539999969303608,
				0.02539999969303608
			]
		},
		{
			"children":[
				0
			],
			"name":"Pivot-ivy_part08"
		}
	],
	"materials":[
		{
			"alphaMode":"BLEND",
			"name":"textures/darkmod/decals/vegetation/ivy_mixed_pieces",
			"normalTexture":{
				"index":0
			},
			"pbrMetallicRoughness":{
				"baseColorTexture":{
					"index":1
				},
				"metallicFactor":0,
				"metallicRoughnessTexture":{
					"index":2
				}
			}
		}
	],
	"meshes":[
		{
			"name":"Mesh_0.006",
			"primitives":[
				{
					"attributes":{
						"POSITION":0,
						"NORMAL":1,
						"TEXCOORD_0":2
					},
					"indices":3,
					"material":0
				}
			]
		}
	],
	"textures":[
		{
			"sampler":0,
			"source":0
		},
		{
			"sampler":0,
			"source":1
		},
		{
			"sampler":0,
			"source":2
		}
	],
	"images":[
		{
			"mimeType":"image/png",
			"name":"ivy_mixed_pieces_normal",
			"uri":"ivy_mixed_pieces_normal.png"
		},
		{
			"mimeType":"image/png",
			"name":"ivy_mixed_pieces",
			"uri":"ivy_mixed_pieces.png"
		},
		{
			"mimeType":"image/png",
			"name":"ivy_mixed_pieces_roughness",
			"uri":"ivy_mixed_pieces_roughness.png"
		}
	],
	"accessors":[
		{
			"bufferView":0,
			"componentType":5126,
			"count":6,
			"max":[
				5.734899997711182,
				46.29240798950195,
				2.632499933242798
			],
			"min":[
				-5.734899997711182,
				-7.721392631530762,
				0
			],
			"type":"VEC3"
		},
		{
			"bufferView":1,
			"componentType":5126,
			"count":6,
			"type":"VEC3"
		},
		{
			"bufferView":2,
			"componentType":5126,
			"count":6,
			"type":"VEC2"
		},
		{
			"bufferView":3,
			"componentType":5123,
			"count":12,
			"type":"SCALAR"
		}
	],
	"bufferViews":[
		{
			"buffer":0,
			"byteLength":72,
			"byteOffset":0,
			"target":34962
		},
		{
			"buffer":0,
			"byteLength":72,
			"byteOffset":72,
			"target":34962
		},
		{
			"buffer":0,
			"byteLength":48,
			"byteOffset":144,
			"target":34962
		},
		{
			"buffer":0,
			"byteLength":24,
			"byteOffset":192,
			"target":34963
		}
	],
	"samplers":[
		{
			"magFilter":9729,
			"minFilter":9987
		}
	],
	"buffers":[
		{
			"byteLength":216,
			"uri":"ivy_part08.bin"
		}
	]
}
