{
	"asset":{
		"generator":"Khronos glTF Blender I/O v4.4.55",
		"version":"2.0"
	},
	"scene":0,
	"scenes":[
		{
			"name":"Scene",
			"nodes":[
				1
			]
		}
	],
	"nodes":[
		{
			"mesh":0,
			"name":"Layer_0"
		},
		{
			"children":[
				0
			],
			"name":"Pivot-Layer_0",
			"scale":[
				0.02539999969303608,
				0.02539999969303608,
				0.02539999969303608
			]
		}
	],
	"materials":[
		{
			"name":"textures/darkmod/decals/dirt/stain03",
			"pbrMetallicRoughness":{
				"baseColorTexture":{
					"index":0
				},
				"metallicFactor":0
			}
		},
		{
			"alphaMode":"BLEND",
			"name":"textures/darkmod/decals/symbols/numeral_1",
			"pbrMetallicRoughness":{
				"baseColorTexture":{
					"index":1
				},
				"metallicFactor":0
			}
		},
		{
			"name":"textures/darkmod/plaster/white_plaster01",
			"normalTexture":{
				"index":2
			},
			"pbrMetallicRoughness":{
				"baseColorTexture":{
					"index":3
				},
				"metallicFactor":0
			}
		},
		{
			"name":"textures/darkmod/wood/panels/molding_grey",
			"normalTexture":{
				"index":4
			},
			"pbrMetallicRoughness":{
				"baseColorTexture":{
					"index":5
				},
				"metallicFactor":0
			}
		}
	],
	"meshes":[
		{
			"name":"Mesh_0.007",
			"primitives":[
				{
					"attributes":{
						"POSITION":0,
						"NORMAL":1,
						"TEXCOORD_0":2
					},
					"indices":3,
					"material":0
				},
				{
					"attributes":{
						"POSITION":4,
						"NORMAL":5,
						"TEXCOORD_0":6
					},
					"indices":7,
					"material":1
				},
				{
					"attributes":{
						"POSITION":8,
						"NORMAL":9,
						"TEXCOORD_0":10
					},
					"indices":11,
					"material":2
				},
				{
					"attributes":{
						"POSITION":12,
						"NORMAL":13,
						"TEXCOORD_0":14
					},
					"indices":15,
					"material":3
				}
			]
		}
	],
	"textures":[
		{
			"sampler":0,
			"source":0
		},
		{
			"sampler":0,
			"source":1
		},
		{
			"sampler":0,
			"source":2
		},
		{
			"sampler":0,
			"source":3
		},
		{
			"sampler":0,
			"source":4
		},
		{
			"sampler":0,
			"source":5
		}
	],
	"images":[
		{
			"mimeType":"image/png",
			"name":"stain03",
			"uri":"stain03.png"
		},
		{
			"mimeType":"image/png",
			"name":"numeral1",
			"uri":"numeral1.png"
		},
		{
			"mimeType":"image/png",
			"name":"white_plaster01_normal",
			"uri":"white_plaster01_normal.png"
		},
		{
			"mimeType":"image/png",
			"name":"white_plaster01",
			"uri":"white_plaster01.png"
		},
		{
			"mimeType":"image/png",
			"name":"molding_grey_normal",
			"uri":"molding_grey_normal.png"
		},
		{
			"mimeType":"image/png",
			"name":"molding_grey",
			"uri":"molding_grey.png"
		}
	],
	"accessors":[
		{
			"bufferView":0,
			"componentType":5126,
			"count":114,
			"max":[
				5.782096862792969,
				3.649334669113159,
				0.6324566602706909
			],
			"min":[
				-5.782096862792969,
				-3.649334669113159,
				0.5594757199287415
			],
			"type":"VEC3"
		},
		{
			"bufferView":1,
			"componentType":5126,
			"count":114,
			"type":"VEC3"
		},
		{
			"bufferView":2,
			"componentType":5126,
			"count":114,
			"type":"VEC2"
		},
		{
			"bufferView":3,
			"componentType":5123,
			"count":303,
			"type":"SCALAR"
		},
		{
			"bufferView":4,
			"componentType":5126,
			"count":4,
			"max":[
				2.5326194763183594,
				2.611060380935669,
				0.6003115177154541
			],
			"min":[
				-2.6184465885162354,
				-2.6514227390289307,
				0.6003115177154541
			],
			"type":"VEC3"
		},
		{
			"bufferView":5,
			"componentType":5126,
			"count":4,
			"type":"VEC3"
		},
		{
			"bufferView":6,
			"componentType":5126,
			"count":4,
			"type":"VEC2"
		},
		{
			"bufferView":7,
			"componentType":5123,
			"count":6,
			"type":"SCALAR"
		},
		{
			"bufferView":8,
			"componentType":5126,
			"count":26,
			"max":[
				5.757723808288574,
				3.4093990325927734,
				0.5467157363891602
			],
			"min":[
				-5.734971046447754,
				-3.332839012145996,
				0.101888507604599
			],
			"type":"VEC3"
		},
		{
			"bufferView":9,
			"componentType":5126,
			"count":26,
			"type":"VEC3"
		},
		{
			"bufferView":10,
			"componentType":5126,
			"count":26,
			"type":"VEC2"
		},
		{
			"bufferView":11,
			"componentType":5123,
			"count":66,
			"type":"SCALAR"
		},
		{
			"bufferView":12,
			"componentType":5126,
			"count":357,
			"max":[
				5.879903793334961,
				3.649334669113159,
				0.6324566602706909
			],
			"min":[
				-5.879903793334961,
				-3.649334669113159,
				0.007543313317000866
			],
			"type":"VEC3"
		},
		{
			"bufferView":13,
			"componentType":5126,
			"count":357,
			"type":"VEC3"
		},
		{
			"bufferView":14,
			"componentType":5126,
			"count":357,
			"type":"VEC2"
		},
		{
			"bufferView":15,
			"componentType":5123,
			"count":972,
			"type":"SCALAR"
		}
	],
	"bufferViews":[
		{
			"buffer":0,
			"byteLength":1368,
			"byteOffset":0,
			"target":34962
		},
		{
			"buffer":0,
			"byteLength":1368,
			"byteOffset":1368,
			"target":34962
		},
		{
			"buffer":0,
			"byteLength":912,
			"byteOffset":2736,
			"target":34962
		},
		{
			"buffer":0,
			"byteLength":606,
			"byteOffset":3648,
			"target":34963
		},
		{
			"buffer":0,
			"byteLength":48,
			"byteOffset":4256,
			"target":34962
		},
		{
			"buffer":0,
			"byteLength":48,
			"byteOffset":4304,
			"target":34962
		},
		{
			"buffer":0,
			"byteLength":32,
			"byteOffset":4352,
			"target":34962
		},
		{
			"buffer":0,
			"byteLength":12,
			"byteOffset":4384,
			"target":34963
		},
		{
			"buffer":0,
			"byteLength":312,
			"byteOffset":4396,
			"target":34962
		},
		{
			"buffer":0,
			"byteLength":312,
			"byteOffset":4708,
			"target":34962
		},
		{
			"buffer":0,
			"byteLength":208,
			"byteOffset":5020,
			"target":34962
		},
		{
			"buffer":0,
			"byteLength":132,
			"byteOffset":5228,
			"target":34963
		},
		{
			"buffer":0,
			"byteLength":4284,
			"byteOffset":5360,
			"target":34962
		},
		{
			"buffer":0,
			"byteLength":4284,
			"byteOffset":9644,
			"target":34962
		},
		{
			"buffer":0,
			"byteLength":2856,
			"byteOffset":13928,
			"target":34962
		},
		{
			"buffer":0,
			"byteLength":1944,
			"byteOffset":16784,
			"target":34963
		}
	],
	"samplers":[
		{
			"magFilter":9729,
			"minFilter":9987
		}
	],
	"buffers":[
		{
			"byteLength":18728,
			"uri":"small_door_sign1.bin"
		}
	]
}
