{
	"asset":{
		"generator":"Khronos glTF Blender I/O v4.4.55",
		"version":"2.0"
	},
	"scene":0,
	"scenes":[
		{
			"name":"Scene",
			"nodes":[
				0
			]
		}
	],
	"nodes":[
		{
			"mesh":0,
			"name":"Layer_0.002"
		}
	],
	"materials":[
		{
			"name":"singlebed1.001",
			"normalTexture":{
				"index":0
			},
			"pbrMetallicRoughness":{
				"baseColorTexture":{
					"index":1
				},
				"metallicFactor":0
			}
		},
		{
			"name":"singlebed1_mattress.001",
			"normalTexture":{
				"index":2
			},
			"pbrMetallicRoughness":{
				"baseColorTexture":{
					"index":3
				},
				"metallicFactor":0
			}
		}
	],
	"meshes":[
		{
			"name":"Mesh_0.006",
			"primitives":[
				{
					"attributes":{
						"POSITION":0,
						"NORMAL":1,
						"TEXCOORD_0":2
					},
					"indices":3,
					"material":0
				},
				{
					"attributes":{
						"POSITION":4,
						"NORMAL":5,
						"TEXCOORD_0":6
					},
					"indices":7,
					"material":1
				}
			]
		}
	],
	"textures":[
		{
			"sampler":0,
			"source":0
		},
		{
			"sampler":0,
			"source":1
		},
		{
			"sampler":0,
			"source":2
		},
		{
			"sampler":0,
			"source":3
		}
	],
	"images":[
		{
			"mimeType":"image/png",
			"name":"singlebed1_normal",
			"uri":"singlebed1_normal.png"
		},
		{
			"mimeType":"image/png",
			"name":"singlebed1_d",
			"uri":"singlebed1_d.png"
		},
		{
			"mimeType":"image/png",
			"name":"cloth_plain_creased_normal",
			"uri":"cloth_plain_creased_normal.png"
		},
		{
			"mimeType":"image/png",
			"name":"cloth_coarse_cream_dirty",
			"uri":"cloth_coarse_cream_dirty.png"
		}
	],
	"accessors":[
		{
			"bufferView":0,
			"componentType":5126,
			"count":213,
			"max":[
				0.7281556129455566,
				0.630395233631134,
				1.013211965560913
			],
			"min":[
				-0.7281556129455566,
				-3.1149831603016764e-09,
				-0.9084078669548035
			],
			"type":"VEC3"
		},
		{
			"bufferView":1,
			"componentType":5126,
			"count":213,
			"type":"VEC3"
		},
		{
			"bufferView":2,
			"componentType":5126,
			"count":213,
			"type":"VEC2"
		},
		{
			"bufferView":3,
			"componentType":5123,
			"count":723,
			"type":"SCALAR"
		},
		{
			"bufferView":4,
			"componentType":5126,
			"count":130,
			"max":[
				0.6848944425582886,
				0.4728572368621826,
				0.9233206510543823
			],
			"min":[
				-0.6848944425582886,
				0,
				-0.8169615268707275
			],
			"type":"VEC3"
		},
		{
			"bufferView":5,
			"componentType":5126,
			"count":130,
			"type":"VEC3"
		},
		{
			"bufferView":6,
			"componentType":5126,
			"count":130,
			"type":"VEC2"
		},
		{
			"bufferView":7,
			"componentType":5123,
			"count":513,
			"type":"SCALAR"
		}
	],
	"bufferViews":[
		{
			"buffer":0,
			"byteLength":2556,
			"byteOffset":0,
			"target":34962
		},
		{
			"buffer":0,
			"byteLength":2556,
			"byteOffset":2556,
			"target":34962
		},
		{
			"buffer":0,
			"byteLength":1704,
			"byteOffset":5112,
			"target":34962
		},
		{
			"buffer":0,
			"byteLength":1446,
			"byteOffset":6816,
			"target":34963
		},
		{
			"buffer":0,
			"byteLength":1560,
			"byteOffset":8264,
			"target":34962
		},
		{
			"buffer":0,
			"byteLength":1560,
			"byteOffset":9824,
			"target":34962
		},
		{
			"buffer":0,
			"byteLength":1040,
			"byteOffset":11384,
			"target":34962
		},
		{
			"buffer":0,
			"byteLength":1026,
			"byteOffset":12424,
			"target":34963
		}
	],
	"samplers":[
		{
			"magFilter":9729,
			"minFilter":9987
		}
	],
	"buffers":[
		{
			"byteLength":13452,
			"uri":"bed.bin"
		}
	]
}
