{
	"asset":{
		"generator":"Khronos glTF Blender I/O v4.4.55",
		"version":"2.0"
	},
	"scene":0,
	"scenes":[
		{
			"name":"Scene",
			"nodes":[
				0
			]
		}
	],
	"nodes":[
		{
			"mesh":0,
			"name":"Layer_0.002"
		}
	],
	"materials":[
		{
			"name":"singlebed1.003",
			"normalTexture":{
				"index":0
			},
			"pbrMetallicRoughness":{
				"baseColorTexture":{
					"index":1
				},
				"metallicFactor":0
			}
		},
		{
			"name":"singlebed1_mattress.005",
			"normalTexture":{
				"index":2
			},
			"pbrMetallicRoughness":{
				"baseColorTexture":{
					"index":3
				},
				"metallicFactor":0
			}
		},
		{
			"name":"textures/common/shadow.012",
			"pbrMetallicRoughness":{
				"baseColorFactor":[
					0,
					0,
					0,
					1
				],
				"metallicFactor":0
			}
		}
	],
	"meshes":[
		{
			"name":"Mesh_0.063",
			"primitives":[
				{
					"attributes":{
						"POSITION":0,
						"NORMAL":1,
						"TEXCOORD_0":2
					},
					"indices":3,
					"material":0
				},
				{
					"attributes":{
						"POSITION":4,
						"NORMAL":5,
						"TEXCOORD_0":6
					},
					"indices":7,
					"material":1
				},
				{
					"attributes":{
						"POSITION":8,
						"NORMAL":9,
						"TEXCOORD_0":10
					},
					"indices":11,
					"material":2
				}
			]
		}
	],
	"textures":[
		{
			"sampler":0,
			"source":0
		},
		{
			"sampler":0,
			"source":1
		},
		{
			"sampler":0,
			"source":2
		},
		{
			"sampler":0,
			"source":3
		}
	],
	"images":[
		{
			"mimeType":"image/png",
			"name":"singlebed1_local",
			"uri":"singlebed1_local.png"
		},
		{
			"mimeType":"image/jpeg",
			"name":"singlebed1_d_ed",
			"uri":"singlebed1_d_ed.jpg"
		},
		{
			"mimeType":"image/png",
			"name":"cloth_plain_creased_local",
			"uri":"cloth_plain_creased_local.png"
		},
		{
			"mimeType":"image/jpeg",
			"name":"cloth_coarse_cream_dirty_ed",
			"uri":"cloth_coarse_cream_dirty_ed.jpg"
		}
	],
	"accessors":[
		{
			"bufferView":0,
			"componentType":5126,
			"count":209,
			"max":[
				0.7281556129455566,
				0.630395233631134,
				1.013211965560913
			],
			"min":[
				-0.7281556129455566,
				-3.1149831603016764e-09,
				-0.9084078669548035
			],
			"type":"VEC3"
		},
		{
			"bufferView":1,
			"componentType":5126,
			"count":209,
			"type":"VEC3"
		},
		{
			"bufferView":2,
			"componentType":5126,
			"count":209,
			"type":"VEC2"
		},
		{
			"bufferView":3,
			"componentType":5123,
			"count":723,
			"type":"SCALAR"
		},
		{
			"bufferView":4,
			"componentType":5126,
			"count":90,
			"max":[
				0.6848944425582886,
				0.4728572368621826,
				0.9233206510543823
			],
			"min":[
				-0.6848944425582886,
				0,
				-0.8169615268707275
			],
			"type":"VEC3"
		},
		{
			"bufferView":5,
			"componentType":5126,
			"count":90,
			"type":"VEC3"
		},
		{
			"bufferView":6,
			"componentType":5126,
			"count":90,
			"type":"VEC2"
		},
		{
			"bufferView":7,
			"componentType":5123,
			"count":441,
			"type":"SCALAR"
		},
		{
			"bufferView":8,
			"componentType":5126,
			"count":40,
			"max":[
				0.6171340346336365,
				0.45077070593833923,
				0.9062992930412292
			],
			"min":[
				-0.6171340346336365,
				0.11432038247585297,
				-0.783274233341217
			],
			"type":"VEC3"
		},
		{
			"bufferView":9,
			"componentType":5126,
			"count":40,
			"type":"VEC3"
		},
		{
			"bufferView":10,
			"componentType":5126,
			"count":40,
			"type":"VEC2"
		},
		{
			"bufferView":11,
			"componentType":5123,
			"count":72,
			"type":"SCALAR"
		}
	],
	"bufferViews":[
		{
			"buffer":0,
			"byteLength":2508,
			"byteOffset":0,
			"target":34962
		},
		{
			"buffer":0,
			"byteLength":2508,
			"byteOffset":2508,
			"target":34962
		},
		{
			"buffer":0,
			"byteLength":1672,
			"byteOffset":5016,
			"target":34962
		},
		{
			"buffer":0,
			"byteLength":1446,
			"byteOffset":6688,
			"target":34963
		},
		{
			"buffer":0,
			"byteLength":1080,
			"byteOffset":8136,
			"target":34962
		},
		{
			"buffer":0,
			"byteLength":1080,
			"byteOffset":9216,
			"target":34962
		},
		{
			"buffer":0,
			"byteLength":720,
			"byteOffset":10296,
			"target":34962
		},
		{
			"buffer":0,
			"byteLength":882,
			"byteOffset":11016,
			"target":34963
		},
		{
			"buffer":0,
			"byteLength":480,
			"byteOffset":11900,
			"target":34962
		},
		{
			"buffer":0,
			"byteLength":480,
			"byteOffset":12380,
			"target":34962
		},
		{
			"buffer":0,
			"byteLength":320,
			"byteOffset":12860,
			"target":34962
		},
		{
			"buffer":0,
			"byteLength":144,
			"byteOffset":13180,
			"target":34963
		}
	],
	"samplers":[
		{
			"magFilter":9729,
			"minFilter":9987
		}
	],
	"buffers":[
		{
			"byteLength":13324,
			"uri":"bed.bin"
		}
	]
}
