{
	"asset":{
		"generator":"Khronos glTF Blender I/O v4.4.55",
		"version":"2.0"
	},
	"extensionsUsed":[
		"KHR_materials_emissive_strength",
		"KHR_materials_specular"
	],
	"scene":0,
	"scenes":[
		{
			"name":"Scene",
			"nodes":[
				2
			]
		}
	],
	"nodes":[
		{
			"mesh":0,
			"name":"Object01\"",
			"rotation":[
				0,
				-1,
				0,
				1.947071694985425e-07
			],
			"scale":[
				0.02539999969303608,
				0.02539999969303608,
				0.02539999969303608
			],
			"translation":[
				-6.5539206843823195e-06,
				-0.07028468698263168,
				-0.06742824614048004
			]
		},
		{
			"mesh":1,
			"name":"Object03\"",
			"rotation":[
				0,
				-1,
				0,
				1.947071694985425e-07
			],
			"scale":[
				0.02539999969303608,
				0.02539999969303608,
				0.02539999969303608
			],
			"translation":[
				-6.5539206843823195e-06,
				-0.07028468698263168,
				-0.06742824614048004
			]
		},
		{
			"children":[
				0,
				1
			],
			"mesh":2,
			"name":"lamp",
			"scale":[
				4.85132360458374,
				4.85132360458374,
				4.85132360458374
			],
			"translation":[
				1.704799069557339e-05,
				0.02200128138065338,
				0.1228577047586441
			]
		}
	],
	"materials":[
		{
			"doubleSided":true,
			"extensions":{
				"KHR_materials_specular":{
					"specularFactor":0
				}
			},
			"name":"Material #45\".001",
			"normalTexture":{
				"index":0
			},
			"pbrMetallicRoughness":{
				"baseColorTexture":{
					"index":1
				},
				"roughnessFactor":0.9683772325515747
			}
		},
		{
			"doubleSided":true,
			"emissiveFactor":[
				1,
				1,
				1
			],
			"extensions":{
				"KHR_materials_emissive_strength":{
					"emissiveStrength":10
				},
				"KHR_materials_specular":{
					"specularFactor":0
				}
			},
			"name":"Material #105\".001",
			"pbrMetallicRoughness":{
				"baseColorTexture":{
					"index":2
				},
				"roughnessFactor":0.9683772325515747
			}
		},
		{
			"doubleSided":true,
			"extensions":{
				"KHR_materials_specular":{
					"specularFactor":0
				}
			},
			"name":"Material #47\".001",
			"normalTexture":{
				"index":3
			},
			"pbrMetallicRoughness":{
				"baseColorTexture":{
					"index":4
				},
				"roughnessFactor":0.9683772325515747
			}
		}
	],
	"meshes":[
		{
			"name":"Mesh.004",
			"primitives":[
				{
					"attributes":{
						"POSITION":0,
						"NORMAL":1,
						"TEXCOORD_0":2
					},
					"indices":3,
					"material":0
				}
			]
		},
		{
			"name":"Mesh.005",
			"primitives":[
				{
					"attributes":{
						"POSITION":4,
						"NORMAL":5,
						"TEXCOORD_0":6
					},
					"indices":7,
					"material":1
				}
			]
		},
		{
			"name":"Mesh.003",
			"primitives":[
				{
					"attributes":{
						"POSITION":8,
						"NORMAL":9,
						"TEXCOORD_0":10
					},
					"indices":11,
					"material":2
				}
			]
		}
	],
	"textures":[
		{
			"sampler":0,
			"source":0
		},
		{
			"sampler":0,
			"source":1
		},
		{
			"sampler":0,
			"source":2
		},
		{
			"sampler":0,
			"source":3
		},
		{
			"sampler":0,
			"source":4
		}
	],
	"images":[
		{
			"mimeType":"image/png",
			"name":"bc_lamp_pole_normal",
			"uri":"bc_lamp_pole_normal.png"
		},
		{
			"mimeType":"image/png",
			"name":"bc_lamp_pole",
			"uri":"bc_lamp_pole.png"
		},
		{
			"mimeType":"image/png",
			"name":"bc_lampglass3_new",
			"uri":"bc_lampglass3_new.png"
		},
		{
			"mimeType":"image/png",
			"name":"bc_lamphead_normal",
			"uri":"bc_lamphead_normal.png"
		},
		{
			"mimeType":"image/png",
			"name":"bc_lamphead",
			"uri":"bc_lamphead.png"
		}
	],
	"accessors":[
		{
			"bufferView":0,
			"componentType":5126,
			"count":154,
			"max":[
				1.1325088739395142,
				5.816546440124512,
				-0.0009746561991050839
			],
			"min":[
				-1.1340850591659546,
				0.0014085167786106467,
				-5.71433687210083
			],
			"type":"VEC3"
		},
		{
			"bufferView":1,
			"componentType":5126,
			"count":154,
			"type":"VEC3"
		},
		{
			"bufferView":2,
			"componentType":5126,
			"count":154,
			"type":"VEC2"
		},
		{
			"bufferView":3,
			"componentType":5123,
			"count":258,
			"type":"SCALAR"
		},
		{
			"bufferView":4,
			"componentType":5126,
			"count":25,
			"max":[
				0.9630525708198547,
				2.8531932830810547,
				-3.6502978801727295
			],
			"min":[
				-0.9675584435462952,
				0.3521046042442322,
				-5.580930709838867
			],
			"type":"VEC3"
		},
		{
			"bufferView":5,
			"componentType":5126,
			"count":25,
			"type":"VEC3"
		},
		{
			"bufferView":6,
			"componentType":5126,
			"count":25,
			"type":"VEC2"
		},
		{
			"bufferView":7,
			"componentType":5123,
			"count":30,
			"type":"SCALAR"
		},
		{
			"bufferView":8,
			"componentType":5126,
			"count":1121,
			"max":[
				0.04042625427246094,
				0.07373197376728058,
				0.08955643326044083
			],
			"min":[
				-0.04047992080450058,
				-0.07026289403438568,
				-0.06260079890489578
			],
			"type":"VEC3"
		},
		{
			"bufferView":9,
			"componentType":5126,
			"count":1121,
			"type":"VEC3"
		},
		{
			"bufferView":10,
			"componentType":5126,
			"count":1121,
			"type":"VEC2"
		},
		{
			"bufferView":11,
			"componentType":5123,
			"count":2130,
			"type":"SCALAR"
		}
	],
	"bufferViews":[
		{
			"buffer":0,
			"byteLength":1848,
			"byteOffset":0,
			"target":34962
		},
		{
			"buffer":0,
			"byteLength":1848,
			"byteOffset":1848,
			"target":34962
		},
		{
			"buffer":0,
			"byteLength":1232,
			"byteOffset":3696,
			"target":34962
		},
		{
			"buffer":0,
			"byteLength":516,
			"byteOffset":4928,
			"target":34963
		},
		{
			"buffer":0,
			"byteLength":300,
			"byteOffset":5444,
			"target":34962
		},
		{
			"buffer":0,
			"byteLength":300,
			"byteOffset":5744,
			"target":34962
		},
		{
			"buffer":0,
			"byteLength":200,
			"byteOffset":6044,
			"target":34962
		},
		{
			"buffer":0,
			"byteLength":60,
			"byteOffset":6244,
			"target":34963
		},
		{
			"buffer":0,
			"byteLength":13452,
			"byteOffset":6304,
			"target":34962
		},
		{
			"buffer":0,
			"byteLength":13452,
			"byteOffset":19756,
			"target":34962
		},
		{
			"buffer":0,
			"byteLength":8968,
			"byteOffset":33208,
			"target":34962
		},
		{
			"buffer":0,
			"byteLength":4260,
			"byteOffset":42176,
			"target":34963
		}
	],
	"samplers":[
		{
			"magFilter":9729,
			"minFilter":9987
		}
	],
	"buffers":[
		{
			"byteLength":46436,
			"uri":"lamp_wall_electric_01.bin"
		}
	]
}
