{
	"asset":{
		"generator":"Khronos glTF Blender I/O v4.4.55",
		"version":"2.0"
	},
	"scene":0,
	"scenes":[
		{
			"name":"Scene",
			"nodes":[
				0
			]
		}
	],
	"nodes":[
		{
			"mesh":0,
			"name":"Layer_0.016"
		}
	],
	"materials":[
		{
			"name":"wchair1.003",
			"normalTexture":{
				"index":0
			},
			"pbrMetallicRoughness":{
				"baseColorTexture":{
					"index":1
				},
				"metallicFactor":0
			}
		}
	],
	"meshes":[
		{
			"name":"Mesh_0.045",
			"primitives":[
				{
					"attributes":{
						"POSITION":0,
						"NORMAL":1,
						"TEXCOORD_0":2
					},
					"indices":3,
					"material":0
				}
			]
		}
	],
	"textures":[
		{
			"sampler":0,
			"source":0
		},
		{
			"sampler":0,
			"source":1
		}
	],
	"images":[
		{
			"mimeType":"image/png",
			"name":"wchair1_local",
			"uri":"wchair1_local.png"
		},
		{
			"mimeType":"image/jpeg",
			"name":"wchair1_d_ed",
			"uri":"wchair1_d_ed.jpg"
		}
	],
	"accessors":[
		{
			"bufferView":0,
			"componentType":5126,
			"count":443,
			"max":[
				0.2836243510246277,
				1.419914722442627,
				0.33261972665786743
			],
			"min":[
				-0.2836243510246277,
				1.515553958597593e-05,
				-0.33261972665786743
			],
			"type":"VEC3"
		},
		{
			"bufferView":1,
			"componentType":5126,
			"count":443,
			"type":"VEC3"
		},
		{
			"bufferView":2,
			"componentType":5126,
			"count":443,
			"type":"VEC2"
		},
		{
			"bufferView":3,
			"componentType":5123,
			"count":1206,
			"type":"SCALAR"
		}
	],
	"bufferViews":[
		{
			"buffer":0,
			"byteLength":5316,
			"byteOffset":0,
			"target":34962
		},
		{
			"buffer":0,
			"byteLength":5316,
			"byteOffset":5316,
			"target":34962
		},
		{
			"buffer":0,
			"byteLength":3544,
			"byteOffset":10632,
			"target":34962
		},
		{
			"buffer":0,
			"byteLength":2412,
			"byteOffset":14176,
			"target":34963
		}
	],
	"samplers":[
		{
			"magFilter":9729,
			"minFilter":9987
		}
	],
	"buffers":[
		{
			"byteLength":16588,
			"uri":"chair.bin"
		}
	]
}
