{
	"asset":{
		"generator":"Khronos glTF Blender I/O v4.4.55",
		"version":"2.0"
	},
	"scene":0,
	"scenes":[
		{
			"name":"Scene",
			"nodes":[
				0
			]
		}
	],
	"nodes":[
		{
			"mesh":0,
			"name":"plate",
			"translation":[
				0,
				0.009999996982514858,
				0
			]
		}
	],
	"materials":[
		{
			"doubleSided":true,
			"name":"bath_material.001",
			"pbrMetallicRoughness":{
				"baseColorTexture":{
					"index":0
				},
				"metallicFactor":0,
				"roughnessFactor":0.5
			}
		}
	],
	"meshes":[
		{
			"name":"Circle",
			"primitives":[
				{
					"attributes":{
						"POSITION":0,
						"NORMAL":1,
						"TEXCOORD_0":2
					},
					"indices":3,
					"material":0
				}
			]
		}
	],
	"textures":[
		{
			"sampler":0,
			"source":0
		}
	],
	"images":[
		{
			"mimeType":"image/png",
			"name":"bath_texture",
			"uri":"bath_texture.png"
		}
	],
	"accessors":[
		{
			"bufferView":0,
			"componentType":5126,
			"count":112,
			"max":[
				0.2500001788139343,
				0.021802667528390884,
				0.2721538543701172
			],
			"min":[
				-0.2500001788139343,
				-0.010944657027721405,
				-0.22784648835659027
			],
			"type":"VEC3"
		},
		{
			"bufferView":1,
			"componentType":5126,
			"count":112,
			"type":"VEC3"
		},
		{
			"bufferView":2,
			"componentType":5126,
			"count":112,
			"type":"VEC2"
		},
		{
			"bufferView":3,
			"componentType":5123,
			"count":180,
			"type":"SCALAR"
		}
	],
	"bufferViews":[
		{
			"buffer":0,
			"byteLength":1344,
			"byteOffset":0,
			"target":34962
		},
		{
			"buffer":0,
			"byteLength":1344,
			"byteOffset":1344,
			"target":34962
		},
		{
			"buffer":0,
			"byteLength":896,
			"byteOffset":2688,
			"target":34962
		},
		{
			"buffer":0,
			"byteLength":360,
			"byteOffset":3584,
			"target":34963
		}
	],
	"samplers":[
		{
			"magFilter":9729,
			"minFilter":9987
		}
	],
	"buffers":[
		{
			"byteLength":3944,
			"uri":"plate.bin"
		}
	]
}
