{
	"asset":{
		"generator":"Khronos glTF Blender I/O v4.4.55",
		"version":"2.0"
	},
	"extensionsUsed":[
		"KHR_materials_emissive_strength"
	],
	"scene":0,
	"scenes":[
		{
			"name":"Scene",
			"nodes":[
				1
			]
		}
	],
	"nodes":[
		{
			"mesh":0,
			"name":"Layer_0",
			"rotation":[
				0,
				0,
				1,
				4.371138828673793e-08
			],
			"scale":[
				0.025400035083293915,
				0.025399990379810333,
				0.02539997547864914
			],
			"translation":[
				0,
				0,
				-0.20096762478351593
			]
		},
		{
			"children":[
				0
			],
			"name":"Pivot-Layer_0"
		}
	],
	"materials":[
		{
			"name":"tdm_lamp_low",
			"normalTexture":{
				"index":0
			},
			"pbrMetallicRoughness":{
				"baseColorTexture":{
					"index":1
				},
				"metallicFactor":0,
				"metallicRoughnessTexture":{
					"index":2
				}
			}
		},
		{
			"name":"tdm_rustylamp",
			"normalTexture":{
				"index":3
			},
			"pbrMetallicRoughness":{
				"baseColorTexture":{
					"index":4
				},
				"metallicFactor":0,
				"metallicRoughnessTexture":{
					"index":5
				}
			}
		},
		{
			"name":"walllight1",
			"normalTexture":{
				"index":6
			},
			"pbrMetallicRoughness":{
				"baseColorTexture":{
					"index":7
				},
				"metallicFactor":0,
				"metallicRoughnessTexture":{
					"index":8
				}
			}
		},
		{
			"emissiveFactor":[
				1,
				0.6337713003158569,
				0.14466500282287598
			],
			"extensions":{
				"KHR_materials_emissive_strength":{
					"emissiveStrength":10.399999618530273
				}
			},
			"name":"walllight1window",
			"normalTexture":{
				"index":9
			},
			"pbrMetallicRoughness":{
				"baseColorTexture":{
					"index":10
				},
				"metallicFactor":0,
				"metallicRoughnessTexture":{
					"index":11
				}
			}
		}
	],
	"meshes":[
		{
			"name":"Mesh_0",
			"primitives":[
				{
					"attributes":{
						"POSITION":0,
						"NORMAL":1,
						"TEXCOORD_0":2,
						"TEXCOORD_1":3
					},
					"indices":4,
					"material":0
				},
				{
					"attributes":{
						"POSITION":5,
						"NORMAL":6,
						"TEXCOORD_0":7,
						"TEXCOORD_1":8
					},
					"indices":9,
					"material":1
				},
				{
					"attributes":{
						"POSITION":10,
						"NORMAL":11,
						"TEXCOORD_0":12,
						"TEXCOORD_1":13
					},
					"indices":14,
					"material":2
				},
				{
					"attributes":{
						"POSITION":15,
						"NORMAL":16,
						"TEXCOORD_0":17,
						"TEXCOORD_1":18
					},
					"indices":19,
					"material":3
				}
			]
		}
	],
	"textures":[
		{
			"sampler":0,
			"source":0
		},
		{
			"sampler":0,
			"source":1
		},
		{
			"sampler":0,
			"source":2
		},
		{
			"sampler":0,
			"source":3
		},
		{
			"sampler":0,
			"source":4
		},
		{
			"sampler":0,
			"source":5
		},
		{
			"sampler":0,
			"source":6
		},
		{
			"sampler":0,
			"source":7
		},
		{
			"sampler":0,
			"source":8
		},
		{
			"sampler":0,
			"source":6
		},
		{
			"sampler":0,
			"source":7
		},
		{
			"sampler":0,
			"source":8
		}
	],
	"images":[
		{
			"mimeType":"image/png",
			"name":"lamp_shaded_normal",
			"uri":"lamp_shaded_normal.png"
		},
		{
			"mimeType":"image/png",
			"name":"lamp_shaded",
			"uri":"lamp_shaded.png"
		},
		{
			"mimeType":"image/png",
			"name":"lamp_shaded_roughness",
			"uri":"lamp_shaded_roughness.png"
		},
		{
			"mimeType":"image/png",
			"name":"lampmetal_normal",
			"uri":"lampmetal_normal.png"
		},
		{
			"mimeType":"image/png",
			"name":"lampmetal",
			"uri":"lampmetal.png"
		},
		{
			"mimeType":"image/png",
			"name":"lampmetal_roughness",
			"uri":"lampmetal_roughness.png"
		},
		{
			"mimeType":"image/png",
			"name":"walllight1_normal",
			"uri":"walllight1_normal.png"
		},
		{
			"mimeType":"image/png",
			"name":"walllight1",
			"uri":"walllight1.png"
		},
		{
			"mimeType":"image/png",
			"name":"walllight1_roughness",
			"uri":"walllight1_roughness.png"
		}
	],
	"accessors":[
		{
			"bufferView":0,
			"componentType":5126,
			"count":108,
			"max":[
				14.2939453125,
				4.0870280265808105,
				31.030202865600586
			],
			"min":[
				-14.928414344787598,
				-12.781909942626953,
				0.009473800659179688
			],
			"type":"VEC3"
		},
		{
			"bufferView":1,
			"componentType":5126,
			"count":108,
			"type":"VEC3"
		},
		{
			"bufferView":2,
			"componentType":5126,
			"count":108,
			"type":"VEC2"
		},
		{
			"bufferView":3,
			"componentType":5126,
			"count":108,
			"type":"VEC2"
		},
		{
			"bufferView":4,
			"componentType":5123,
			"count":318,
			"type":"SCALAR"
		},
		{
			"bufferView":5,
			"componentType":5126,
			"count":297,
			"max":[
				3.7581841945648193,
				1.1865487098693848,
				22.35580062866211
			],
			"min":[
				-4.466309070587158,
				-10.32293701171875,
				11.637205123901367
			],
			"type":"VEC3"
		},
		{
			"bufferView":6,
			"componentType":5126,
			"count":297,
			"type":"VEC3"
		},
		{
			"bufferView":7,
			"componentType":5126,
			"count":297,
			"type":"VEC2"
		},
		{
			"bufferView":8,
			"componentType":5126,
			"count":297,
			"type":"VEC2"
		},
		{
			"bufferView":9,
			"componentType":5123,
			"count":834,
			"type":"SCALAR"
		},
		{
			"bufferView":10,
			"componentType":5126,
			"count":44,
			"max":[
				9.295519828796387,
				6.621997356414795,
				19.840545654296875
			],
			"min":[
				-9.89680004119873,
				-0.7498970031738281,
				17.19756317138672
			],
			"type":"VEC3"
		},
		{
			"bufferView":11,
			"componentType":5126,
			"count":44,
			"type":"VEC3"
		},
		{
			"bufferView":12,
			"componentType":5126,
			"count":44,
			"type":"VEC2"
		},
		{
			"bufferView":13,
			"componentType":5126,
			"count":44,
			"type":"VEC2"
		},
		{
			"bufferView":14,
			"componentType":5123,
			"count":72,
			"type":"SCALAR"
		},
		{
			"bufferView":15,
			"componentType":5126,
			"count":63,
			"max":[
				3.058159828186035,
				-2.2314839363098145,
				20.687366485595703
			],
			"min":[
				-3.718792676925659,
				-11.003959655761719,
				12.10165023803711
			],
			"type":"VEC3"
		},
		{
			"bufferView":16,
			"componentType":5126,
			"count":63,
			"type":"VEC3"
		},
		{
			"bufferView":17,
			"componentType":5126,
			"count":63,
			"type":"VEC2"
		},
		{
			"bufferView":18,
			"componentType":5126,
			"count":63,
			"type":"VEC2"
		},
		{
			"bufferView":19,
			"componentType":5123,
			"count":252,
			"type":"SCALAR"
		}
	],
	"bufferViews":[
		{
			"buffer":0,
			"byteLength":1296,
			"byteOffset":0,
			"target":34962
		},
		{
			"buffer":0,
			"byteLength":1296,
			"byteOffset":1296,
			"target":34962
		},
		{
			"buffer":0,
			"byteLength":864,
			"byteOffset":2592,
			"target":34962
		},
		{
			"buffer":0,
			"byteLength":864,
			"byteOffset":3456,
			"target":34962
		},
		{
			"buffer":0,
			"byteLength":636,
			"byteOffset":4320,
			"target":34963
		},
		{
			"buffer":0,
			"byteLength":3564,
			"byteOffset":4956,
			"target":34962
		},
		{
			"buffer":0,
			"byteLength":3564,
			"byteOffset":8520,
			"target":34962
		},
		{
			"buffer":0,
			"byteLength":2376,
			"byteOffset":12084,
			"target":34962
		},
		{
			"buffer":0,
			"byteLength":2376,
			"byteOffset":14460,
			"target":34962
		},
		{
			"buffer":0,
			"byteLength":1668,
			"byteOffset":16836,
			"target":34963
		},
		{
			"buffer":0,
			"byteLength":528,
			"byteOffset":18504,
			"target":34962
		},
		{
			"buffer":0,
			"byteLength":528,
			"byteOffset":19032,
			"target":34962
		},
		{
			"buffer":0,
			"byteLength":352,
			"byteOffset":19560,
			"target":34962
		},
		{
			"buffer":0,
			"byteLength":352,
			"byteOffset":19912,
			"target":34962
		},
		{
			"buffer":0,
			"byteLength":144,
			"byteOffset":20264,
			"target":34963
		},
		{
			"buffer":0,
			"byteLength":756,
			"byteOffset":20408,
			"target":34962
		},
		{
			"buffer":0,
			"byteLength":756,
			"byteOffset":21164,
			"target":34962
		},
		{
			"buffer":0,
			"byteLength":504,
			"byteOffset":21920,
			"target":34962
		},
		{
			"buffer":0,
			"byteLength":504,
			"byteOffset":22424,
			"target":34962
		},
		{
			"buffer":0,
			"byteLength":504,
			"byteOffset":22928,
			"target":34963
		}
	],
	"samplers":[
		{
			"magFilter":9729,
			"minFilter":9987
		}
	],
	"buffers":[
		{
			"byteLength":23432,
			"uri":"lamp_shaded03.bin"
		}
	]
}
