{
	"asset":{
		"generator":"Khronos glTF Blender I/O v4.4.55",
		"version":"2.0"
	},
	"extensionsUsed":[
		"KHR_materials_emissive_strength"
	],
	"scene":0,
	"scenes":[
		{
			"name":"Scene",
			"nodes":[
				1
			]
		}
	],
	"nodes":[
		{
			"mesh":0,
			"name":"Wallight1.4"
		},
		{
			"children":[
				0
			],
			"name":"Pivot-Wallight1.4",
			"scale":[
				0.02539999969303608,
				0.02539999969303608,
				0.02539999969303608
			]
		}
	],
	"materials":[
		{
			"name":"walllight1",
			"normalTexture":{
				"index":0
			},
			"pbrMetallicRoughness":{
				"baseColorTexture":{
					"index":1
				},
				"metallicFactor":0,
				"metallicRoughnessTexture":{
					"index":2
				}
			}
		},
		{
			"emissiveFactor":[
				0.5389240384101868,
				0.9433640837669373,
				1
			],
			"extensions":{
				"KHR_materials_emissive_strength":{
					"emissiveStrength":10
				}
			},
			"name":"walllight1window",
			"normalTexture":{
				"index":3
			},
			"pbrMetallicRoughness":{
				"baseColorTexture":{
					"index":4
				},
				"metallicFactor":0,
				"metallicRoughnessTexture":{
					"index":5
				}
			}
		}
	],
	"meshes":[
		{
			"name":"Mesh_0",
			"primitives":[
				{
					"attributes":{
						"POSITION":0,
						"NORMAL":1,
						"TEXCOORD_0":2
					},
					"indices":3,
					"material":0
				},
				{
					"attributes":{
						"POSITION":4,
						"NORMAL":5,
						"TEXCOORD_0":6
					},
					"indices":7,
					"material":1
				}
			]
		}
	],
	"textures":[
		{
			"sampler":0,
			"source":0
		},
		{
			"sampler":0,
			"source":1
		},
		{
			"sampler":0,
			"source":2
		},
		{
			"sampler":0,
			"source":0
		},
		{
			"sampler":0,
			"source":1
		},
		{
			"sampler":0,
			"source":2
		}
	],
	"images":[
		{
			"mimeType":"image/png",
			"name":"walllight1_normal",
			"uri":"walllight1_normal.png"
		},
		{
			"mimeType":"image/png",
			"name":"walllight1",
			"uri":"walllight1.png"
		},
		{
			"mimeType":"image/png",
			"name":"walllight1_roughness",
			"uri":"walllight1_roughness.png"
		}
	],
	"accessors":[
		{
			"bufferView":0,
			"componentType":5126,
			"count":201,
			"max":[
				11.423999786376953,
				17.850000381469727,
				6.425999641418457
			],
			"min":[
				-11.423999786376953,
				-17.850000381469727,
				-6.425999641418457
			],
			"type":"VEC3"
		},
		{
			"bufferView":1,
			"componentType":5126,
			"count":201,
			"type":"VEC3"
		},
		{
			"bufferView":2,
			"componentType":5126,
			"count":201,
			"type":"VEC2"
		},
		{
			"bufferView":3,
			"componentType":5123,
			"count":336,
			"type":"SCALAR"
		},
		{
			"bufferView":4,
			"componentType":5126,
			"count":16,
			"max":[
				6.068999290466309,
				6.426000118255615,
				6.068999290466309
			],
			"min":[
				-6.069000244140625,
				-2.49899959564209,
				-6.069000244140625
			],
			"type":"VEC3"
		},
		{
			"bufferView":5,
			"componentType":5126,
			"count":16,
			"type":"VEC3"
		},
		{
			"bufferView":6,
			"componentType":5126,
			"count":16,
			"type":"VEC2"
		},
		{
			"bufferView":7,
			"componentType":5123,
			"count":24,
			"type":"SCALAR"
		}
	],
	"bufferViews":[
		{
			"buffer":0,
			"byteLength":2412,
			"byteOffset":0,
			"target":34962
		},
		{
			"buffer":0,
			"byteLength":2412,
			"byteOffset":2412,
			"target":34962
		},
		{
			"buffer":0,
			"byteLength":1608,
			"byteOffset":4824,
			"target":34962
		},
		{
			"buffer":0,
			"byteLength":672,
			"byteOffset":6432,
			"target":34963
		},
		{
			"buffer":0,
			"byteLength":192,
			"byteOffset":7104,
			"target":34962
		},
		{
			"buffer":0,
			"byteLength":192,
			"byteOffset":7296,
			"target":34962
		},
		{
			"buffer":0,
			"byteLength":128,
			"byteOffset":7488,
			"target":34962
		},
		{
			"buffer":0,
			"byteLength":48,
			"byteOffset":7616,
			"target":34963
		}
	],
	"samplers":[
		{
			"magFilter":9729,
			"minFilter":9987
		}
	],
	"buffers":[
		{
			"byteLength":7664,
			"uri":"electric_plain1_unattached.bin"
		}
	]
}
