{
  "accessors": [
    {
      "bufferView": 0,
      "count": 368,
      "componentType": 5126,
      "type": "VEC3",
      "min": [
        -9.116904258728027,
        0.0153350830078125,
        -9.370513916015623
      ],
      "max": [
        9.116904258728027,
        34.87565231323242,
        9.37051486968994
      ]
    },
    {
      "bufferView": 1,
      "count": 368,
      "componentType": 5126,
      "type": "VEC3"
    },
    {
      "bufferView": 2,
      "count": 368,
      "componentType": 5126,
      "type": "VEC2"
    },
    {
      "bufferView": 3,
      "count": 1146,
      "componentType": 5123,
      "type": "SCALAR"
    },
    {
      "bufferView": 4,
      "count": 32,
      "componentType": 5126,
      "type": "VEC3",
      "min": [
        -7.0295867919921875,
        2.367877960205078,
        -7.225137710571289
      ],
      "max": [
        7.029587268829346,
        17.51180076599121,
        7.225135326385498
      ]
    },
    {
      "bufferView": 5,
      "count": 32,
      "componentType": 5126,
      "type": "VEC3"
    },
    {
      "bufferView": 6,
      "count": 32,
      "componentType": 5126,
      "type": "VEC2"
    },
    {
      "bufferView": 7,
      "count": 48,
      "componentType": 5123,
      "type": "SCALAR"
    }
  ],
  "asset": {
    "generator": "Khronos glTF Blender I/O v4.4.55",
    "version": "2.0"
  },
  "buffers": [
    {
      "byteLength": 15188,
      "uri": "round_lantern_sitting.bin"
    }
  ],
  "bufferViews": [
    {
      "buffer": 0,
      "byteLength": 4416,
      "byteOffset": 0,
      "target": 34962
    },
    {
      "buffer": 0,
      "byteLength": 4416,
      "byteOffset": 4416,
      "target": 34962
    },
    {
      "buffer": 0,
      "byteLength": 2944,
      "byteOffset": 8832,
      "target": 34962
    },
    {
      "buffer": 0,
      "byteLength": 2292,
      "byteOffset": 11776,
      "target": 34963
    },
    {
      "buffer": 0,
      "byteLength": 384,
      "byteOffset": 14068,
      "target": 34962
    },
    {
      "buffer": 0,
      "byteLength": 384,
      "byteOffset": 14452,
      "target": 34962
    },
    {
      "buffer": 0,
      "byteLength": 256,
      "byteOffset": 14836,
      "target": 34962
    },
    {
      "buffer": 0,
      "byteLength": 96,
      "byteOffset": 15092,
      "target": 34963
    }
  ],
  "scene": 0,
  "images": [
    {
      "mimeType": "image/ktx2",
      "name": "iron_rough_local",
      "uri": "bc7_ktx2/iron_rough_local_bc7.ktx2"
    },
    {
      "mimeType": "image/ktx2",
      "name": "iron_rough",
      "uri": "bc7_ktx2/iron_rough_bc7.ktx2"
    },
    {
      "mimeType": "image/ktx2",
      "name": "iron_rough_s",
      "uri": "bc7_ktx2/iron_rough_s_bc7.ktx2"
    },
    {
      "mimeType": "image/ktx2",
      "name": "lamp_glass_lit",
      "uri": "bc7_ktx2/lamp_glass_lit_bc7.ktx2"
    }
  ],
  "materials": [
    {
      "alphaMode": "OPAQUE",
      "doubleSided": false,
      "name": "textures/darkmod/metal/flat/iron_rough.001",
      "pbrMetallicRoughness": {
        "baseColorFactor": [
          1.0,
          1.0,
          1.0,
          1.0
        ],
        "baseColorTexture": {
          "index": 1,
          "texCoord": 0
        },
        "metallicFactor": 1.0,
        "roughnessFactor": 1.0,
        "metallicRoughnessTexture": {
          "index": 2,
          "texCoord": 0
        }
      },
      "normalTexture": {
        "index": 0,
        "scale": 1.0,
        "texCoord": 0
      },
      "emissiveFactor": [
        0.0,
        0.0,
        0.0
      ]
    },
    {
      "alphaMode": "OPAQUE",
      "doubleSided": false,
      "name": "textures/darkmod/window/lamp_glass_lit_opaque",
      "pbrMetallicRoughness": {
        "baseColorFactor": [
          1.0,
          1.0,
          1.0,
          1.0
        ],
        "baseColorTexture": {
          "index": 3,
          "texCoord": 0
        },
        "metallicFactor": 0.68636364,
        "roughnessFactor": 0.72727275
      },
      "emissiveFactor": [
        0.39999998,
        0.042508285,
        0.01873279
      ]
    }
  ],
  "meshes": [
    {
      "name": "Mesh_0.066",
      "primitives": [
        {
          "attributes": {
            "POSITION": 0,
            "NORMAL": 1,
            "TEXCOORD_0": 2
          },
          "indices": 3,
          "material": 0
        },
        {
          "attributes": {
            "POSITION": 4,
            "NORMAL": 5,
            "TEXCOORD_0": 6
          },
          "indices": 7,
          "material": 1
        }
      ]
    }
  ],
  "nodes": [
    {
      "mesh": 0,
      "name": "round_lantern_sitting",
      "scale": [
        0.018651431,
        0.018651431,
        0.018651431
      ]
    }
  ],
  "samplers": [
    {
      "magFilter": 9729,
      "minFilter": 9987,
      "wrapS": 10497,
      "wrapT": 10497
    }
  ],
  "scenes": [
    {
      "name": "Scene",
      "nodes": [
        0
      ]
    }
  ],
  "textures": [
    {
      "sampler": 0,
      "source": 0
    },
    {
      "sampler": 0,
      "source": 1
    },
    {
      "sampler": 0,
      "source": 2
    },
    {
      "sampler": 0,
      "source": 3
    }
  ]
}