{
	"asset":{
		"generator":"Khronos glTF Blender I/O v4.4.55",
		"version":"2.0"
	},
	"scene":0,
	"scenes":[
		{
			"name":"Scene",
			"nodes":[
				0
			]
		}
	],
	"nodes":[
		{
			"mesh":0,
			"name":"round_lantern_sitting",
			"scale":[
				0.018651431426405907,
				0.018651431426405907,
				0.018651431426405907
			]
		}
	],
	"materials":[
		{
			"name":"tdm_particles/candlefire",
			"pbrMetallicRoughness":{
				"metallicFactor":0
			}
		},
		{
			"name":"textures/darkmod/metal/flat/iron_rough.001",
			"normalTexture":{
				"index":0
			},
			"pbrMetallicRoughness":{
				"baseColorTexture":{
					"index":1
				},
				"metallicRoughnessTexture":{
					"index":2
				}
			}
		},
		{
			"emissiveFactor":[
				0.3999999761581421,
				0.042508286684257435,
				0.018732789532375893
			],
			"name":"textures/darkmod/window/lamp_glass_lit_opaque",
			"pbrMetallicRoughness":{
				"baseColorTexture":{
					"index":3
				},
				"metallicFactor":0.6863636374473572,
				"roughnessFactor":0.7272727489471436
			}
		}
	],
	"meshes":[
		{
			"name":"Mesh_0.066",
			"primitives":[
				{
					"attributes":{
						"POSITION":0,
						"NORMAL":1,
						"TEXCOORD_0":2
					},
					"indices":3,
					"material":0
				},
				{
					"attributes":{
						"POSITION":4,
						"NORMAL":5,
						"TEXCOORD_0":6
					},
					"indices":7,
					"material":1
				},
				{
					"attributes":{
						"POSITION":8,
						"NORMAL":9,
						"TEXCOORD_0":10
					},
					"indices":11,
					"material":2
				}
			]
		}
	],
	"textures":[
		{
			"sampler":0,
			"source":0
		},
		{
			"sampler":0,
			"source":1
		},
		{
			"sampler":0,
			"source":2
		},
		{
			"sampler":0,
			"source":3
		}
	],
	"images":[
		{
			"mimeType":"image/png",
			"name":"iron_rough_local",
			"uri":"iron_rough_local.png"
		},
		{
			"mimeType":"image/png",
			"name":"iron_rough",
			"uri":"iron_rough.png"
		},
		{
			"mimeType":"image/png",
			"name":"iron_rough_s",
			"uri":"iron_rough_s.png"
		},
		{
			"mimeType":"image/png",
			"name":"lamp_glass_lit",
			"uri":"lamp_glass_lit.png"
		}
	],
	"accessors":[
		{
			"bufferView":0,
			"componentType":5126,
			"count":4,
			"max":[
				0.8402729034423828,
				9.802057266235352,
				0.019593358039855957
			],
			"min":[
				-0.9777679443359375,
				2.968496322631836,
				-0.2036338448524475
			],
			"type":"VEC3"
		},
		{
			"bufferView":1,
			"componentType":5126,
			"count":4,
			"type":"VEC3"
		},
		{
			"bufferView":2,
			"componentType":5126,
			"count":4,
			"type":"VEC2"
		},
		{
			"bufferView":3,
			"componentType":5123,
			"count":6,
			"type":"SCALAR"
		},
		{
			"bufferView":4,
			"componentType":5126,
			"count":364,
			"max":[
				9.116904258728027,
				34.87565231323242,
				9.370514869689941
			],
			"min":[
				-9.116904258728027,
				0.0153350830078125,
				-9.370513916015625
			],
			"type":"VEC3"
		},
		{
			"bufferView":5,
			"componentType":5126,
			"count":364,
			"type":"VEC3"
		},
		{
			"bufferView":6,
			"componentType":5126,
			"count":364,
			"type":"VEC2"
		},
		{
			"bufferView":7,
			"componentType":5123,
			"count":1140,
			"type":"SCALAR"
		},
		{
			"bufferView":8,
			"componentType":5126,
			"count":32,
			"max":[
				7.029587268829346,
				17.51180076599121,
				7.225135326385498
			],
			"min":[
				-7.0295867919921875,
				2.367877960205078,
				-7.225137710571289
			],
			"type":"VEC3"
		},
		{
			"bufferView":9,
			"componentType":5126,
			"count":32,
			"type":"VEC3"
		},
		{
			"bufferView":10,
			"componentType":5126,
			"count":32,
			"type":"VEC2"
		},
		{
			"bufferView":11,
			"componentType":5123,
			"count":48,
			"type":"SCALAR"
		}
	],
	"bufferViews":[
		{
			"buffer":0,
			"byteLength":48,
			"byteOffset":0,
			"target":34962
		},
		{
			"buffer":0,
			"byteLength":48,
			"byteOffset":48,
			"target":34962
		},
		{
			"buffer":0,
			"byteLength":32,
			"byteOffset":96,
			"target":34962
		},
		{
			"buffer":0,
			"byteLength":12,
			"byteOffset":128,
			"target":34963
		},
		{
			"buffer":0,
			"byteLength":4368,
			"byteOffset":140,
			"target":34962
		},
		{
			"buffer":0,
			"byteLength":4368,
			"byteOffset":4508,
			"target":34962
		},
		{
			"buffer":0,
			"byteLength":2912,
			"byteOffset":8876,
			"target":34962
		},
		{
			"buffer":0,
			"byteLength":2280,
			"byteOffset":11788,
			"target":34963
		},
		{
			"buffer":0,
			"byteLength":384,
			"byteOffset":14068,
			"target":34962
		},
		{
			"buffer":0,
			"byteLength":384,
			"byteOffset":14452,
			"target":34962
		},
		{
			"buffer":0,
			"byteLength":256,
			"byteOffset":14836,
			"target":34962
		},
		{
			"buffer":0,
			"byteLength":96,
			"byteOffset":15092,
			"target":34963
		}
	],
	"samplers":[
		{
			"magFilter":9729,
			"minFilter":9987
		}
	],
	"buffers":[
		{
			"byteLength":15188,
			"uri":"round_lantern_sitting.bin"
		}
	]
}
